<?xml version="1.0" encoding="utf-8"?>
<!-- Designed by Vexels.com - 2016 All Rights Reserved - https://vexels.com/terms-and-conditions/  -->

<svg version="1.1" id="Layer_1" xmlns="http://www.w3.org/2000/svg" xmlns:xlink="http://www.w3.org/1999/xlink" x="0px" y="0px"
	 width="1200px" height="1200px" viewBox="0 0 1200 1200" enable-background="new 0 0 1200 1200" xml:space="preserve">
<path fill="#4C0022" d="M1093.648,341.427c-23.344-54.46-63.794-62.23-116.72-57.568c-52.904,4.683-77.793,56.014-77.793,56.014
	l-17.106-3.109l-38.927,24.899c0,0,0,0-18.671,9.326c-18.671,9.345-74.685,6.237-154.042-7.761
	c-79.357-14.009-175.822-24.899-175.822-24.899c-138.499-10.899-186.751,84.021-186.751,84.021
	c-35.777,4.683-56.013,13.998-84.03,45.124c-27.996,31.115-31.105,46.688-54.449,88.702c-23.344,41.995-68.467,26.453-68.467,26.453
	c-32.669-15.563-29.561-74.705-29.561-74.705c-4.673-40.45-15.583,4.683-15.583,4.683c-23.323,71.566,31.125,96.454,46.709,101.137
	c15.563,4.662,88.683-6.217,112.026-62.24c23.345-56.014,87.139-85.575,87.139-85.575
	c-24.888,85.575,60.686,132.263,108.918,143.153c48.252,10.91-15.563,63.794-15.563,63.794
	c-21.78,21.789,43.579,102.721,43.579,102.721s68.468,49.776,59.122,60.666c-9.345,10.89-40.45,57.578-24.888,68.467
	c15.543,10.9,32.67,20.235,46.688,3.129c13.998-17.127-3.129-21.789,3.109-34.234c6.237-12.474,45.122-38.917,45.122-38.917
	s42.015,35.788,56.014,37.352c14.019,1.564,51.361,6.227,54.469-10.91c3.109-17.097-7.781-21.749-31.124-21.749
	c-23.345,0-46.688-24.919-46.688-24.919c6.237-3.108,121.392-124.501,121.392-124.501c10.89-1.544,54.449,107.384,54.449,107.384
	s12.454-6.237,0,6.228c-12.455,12.444-10.89,9.326-54.449,9.326c-43.58,0-24.908,57.577,15.542,42.014
	c40.472-15.532,90.268-51.34,90.268-51.34c17.127-24.909-21.8-133.827-24.888-149.39c-3.129-15.552,23.324-31.124,23.324-31.124
	c43.559,0,98.028-112.047,98.028-112.047l24.888,4.683l32.69-21.791l4.673-17.126c12.453-4.663,94.92-20.216,118.244-24.878
	c23.364-4.674,23.364-28.007,23.364-28.007c18.691-3.129,20.235-42.015,20.235-42.015
	C1162.095,344.535,1093.648,341.427,1093.648,341.427z M461.879,722.671c-24.909-28.007,20.235-54.46,20.235-54.46
	c-6.237,12.444,15.542,96.474,15.542,96.474S486.766,750.667,461.879,722.671z M564.58,761.577
	c-26.473-28.016-6.237-166.506-6.237-166.506c1.565-26.453,91.812,56.023,91.812,56.023
	C633.047,699.326,564.58,761.577,564.58,761.577z"/>
</svg>
