<?xml version="1.0" encoding="utf-8"?>
<!-- Designed by Vexels.com - 2016 All Rights Reserved - https://vexels.com/terms-and-conditions/  -->

<svg version="1.1" id="Layer_1" xmlns="http://www.w3.org/2000/svg" xmlns:xlink="http://www.w3.org/1999/xlink" x="0px" y="0px"
	 width="1200px" height="1200px" viewBox="0 0 1200 1200" enable-background="new 0 0 1200 1200" xml:space="preserve">
<path fill="#4C0022" d="M500.7,563.369c0,0-12.032,84.345-54.205,91.875c-42.153,7.531-67.771,4.522-75.281,16.554
	c-7.55,12.052-15.079,22.61-13.566,31.624c1.514,9.045,18.069,49.703,42.153,58.747c24.105,9.044,10.539,24.075-1.494,31.624
	c0,0-25.599-6.027-37.65-25.599c-12.052-19.592-28.607-78.309-55.699-81.327c0,0-18.088-7.521-9.064-15.05
	c0,0-48.189,33.109-60.221,58.727c-12.033,25.598-16.555,48.189-27.093,57.222c-10.558,9.035-75.3,9.035-51.216-18.078
	c24.104-27.112,18.087-18.068,30.12-16.564c0,0,15.06-21.086,22.591-45.161c7.53-24.114,33.128-67.781,40.658-79.813
	c7.531-12.052,6.017-21.096,30.101-19.592c24.124,1.504,66.257,9.054,69.285-2.998c0,0-15.06-51.217-31.614-55.729
	c0,0-54.225-40.649-15.06-96.367c0,0-24.124-30.121-55.738,40.658c-31.595,70.779-106.896,78.309-117.434,78.309
	c-10.559,0-84.326-16.573-79.823-57.232c0,0-4.503-27.103,15.06,0c0,0,51.196,52.72,94.863,18.078c0,0,37.67-15.05,63.268-63.239
	c25.599-48.199,57.213-63.24,97.872-67.772c0,0,55.719-82.831,251.462-55.718c0,0,79.823,24.104,135.522,27.092
	c55.738,3.018,118.987,12.072,141.577-1.494c22.571-13.566,33.128-10.549,33.128-10.549l31.615-13.526l24.084-4.542
	c0,0-10.537-15.05,4.522-22.581c15.06-7.53,37.631-25.618,46.675-12.051c0,0,91.855,1.513,103.907,64.743
	c0,0,67.751,15.07,54.205,48.199c0,0-15.04,39.154-34.623,45.19c0,0-100.899,30.091-146.08,9.024l1.514,16.574l-45.161,24.075
	c0,0-34.662,39.155-43.687,54.234c-9.023,15.04-85.839,93.349-121.975,106.896c0,0-18.069,103.898-7.531,134.028
	c10.538,30.11,18.068,46.685,36.156,51.196c18.049,4.513,48.169-10.537,40.639,27.113c0,0-13.546,12.052-60.221,1.514
	c-46.675-10.558-43.667-24.114-49.703-43.677c-6.017-19.592-16.574-16.574-18.068-51.206c-1.495-34.632-4.503-70.759-4.503-70.759
	s-42.172,60.221-57.232,82.802c-15.06,22.59-18.069,27.122-34.623,33.128c-16.574,6.036-106.916,16.584-117.473-22.581
	c-10.518-39.144,37.67-21.086,55.738-4.512c18.068,16.554,28.586,4.512,40.639-6.036c12.053-10.538,51.217-135.512,58.727-147.565
	c7.53-12.032,13.565-21.076,13.565-21.076s-64.762-43.687-82.831-54.215C553.41,575.44,499.186,549.812,500.7,563.369z"/>
</svg>
