<?xml version="1.0" encoding="utf-8"?>
<!-- Designed by Vexels.com - 2016 All Rights Reserved - https://vexels.com/terms-and-conditions/  -->

<svg version="1.1" id="Layer_1" xmlns="http://www.w3.org/2000/svg" xmlns:xlink="http://www.w3.org/1999/xlink" x="0px" y="0px"
	 width="1200px" height="1200px" viewBox="0 0 1200 1200" enable-background="new 0 0 1200 1200" xml:space="preserve">
<path fill="#4C0022" d="M1098.734,408.636c-2.71-43.433-77.335-66.496-77.335-66.496c-14.915-37.977-70.534-9.494-70.534-9.494
	c-14.932-12.196-37.994,0-31.21-1.347c6.785-1.364,21.717,33.903,21.717,33.903l-32.574,6.802
	c-27.137-10.858-63.768,14.914-63.768,14.914c-33.903,10.859-202.124-16.278-202.124-16.278
	c-166.875-25.782-268.637,35.284-268.637,35.284c-103.09-14.94-137.028,70.525-137.028,70.525
	c-48.834,70.56-115.295,44.779-115.295,44.779C71.748,495.447,92.1,518.51,92.1,518.51c61.04,69.205,135.665,4.083,135.665,4.083
	c85.465-104.463,119.386-78.673,119.386-78.673c-62.421,24.391-47.489,108.528-47.489,108.528s-2.71,6.767-13.55,10.84
	c-10.858,4.074-27.137,2.728-44.779,5.429c-17.625,2.719-20.352,12.213-24.427,23.063c-4.074,10.867-37.977,52.918-37.977,52.918
	c-12.204,2.719-19.006,18.997-28.5,21.698c-6.182,1.772-8.325,16.722-9.087,26.978l-34.327,17.81
	c-28.483,6.766-48.835,24.418-48.835,24.418c-28.501,40.705,25.773,28.482,36.631,18.989c10.857-9.504,39.34-23.063,59.693-31.202
	c20.352-8.148,50.198-17.633,88.175-28.492c37.995-10.857,69.205-8.148,122.114-29.846c52.909-21.716,62.403-70.533,81.392-94.96
	c18.988-24.418,48.835-27.118,71.915-29.846c23.045-2.719,88.175,17.642,104.454,29.846c16.278,12.204,55.619,42.051,55.619,42.051
	s17.642-24.409,5.438,0c-12.222,24.409,5.42,29.846,5.42,29.846s-4.091,16.287-13.55,33.921
	c-9.512,17.642-10.876,46.125-31.229,78.69c-20.352,32.557-9.494,39.35-1.346,59.685c8.131,20.361-12.204,31.21,29.846,51.562
	c42.051,20.335,55.619,8.13,55.619,8.13c16.279-14.914-25.773-21.699-31.192-27.118c-5.438-5.421-16.296-17.642-23.063-35.284
	c-6.802-17.625,37.977-74.626,47.471-103.108c9.494-28.492,69.187-74.625,69.187-74.625c21.716,0,89.557-27.128,89.557-27.128
	l-5.456,29.837c-10.84,28.5,69.205,80.064,85.483,94.978c16.278,14.932,86.829,80.046,104.471,92.258
	c17.625,12.213,33.903,31.193,63.749,20.344c29.847-10.849-16.278-33.92-35.266-40.696c-18.989-6.793-51.545-39.35-51.545-39.35
	C949.501,659.63,937.297,608.058,937.297,608.058c5.421-20.343,6.785-75.971,6.785-75.971l10.84,6.784l36.631-25.781
	c59.693,20.352,94.977-14.915,94.977-14.915c29.829-1.346,58.33-35.275,58.33-35.275
	C1169.285,431.689,1098.734,408.636,1098.734,408.636z M282.037,618.907c-5.066,10.15-62.102,36.817-78.522,45.824
	c18.722-52.892,74.448-44.46,74.448-44.46S287.457,608.067,282.037,618.907z"/>
</svg>
