<?xml version="1.0" encoding="utf-8"?>
<!-- Designed by Vexels.com - 2016 All Rights Reserved - https://vexels.com/terms-and-conditions/  -->

<svg version="1.1" id="Layer_1" xmlns="http://www.w3.org/2000/svg" xmlns:xlink="http://www.w3.org/1999/xlink" x="0px" y="0px"
	 width="1200px" height="1200px" viewBox="0 0 1200 1200" enable-background="new 0 0 1200 1200" xml:space="preserve">
<path fill="#4C0022" d="M255.5,675.688c0,0-50.355,43.712-66.251,46.376c0,0-64.91,23.837-71.535,38.402
	c-6.626,14.582-18.544,25.185-26.501,11.935c-7.94-13.25-9.272-22.521,5.293-37.095c14.582-14.565,33.135-29.13,45.061-38.411
	c11.918-9.289,17.212-7.957,31.794-14.573c14.556-6.634,59.617-42.405,71.535-66.251c11.918-23.845,11.918-100.683,56.963-124.528
	c0,0-47.691-10.612-105.985,64.903c0,0-60.932,78.16-137.77,0c0,0-25.185-34.449,13.241-13.233c0,0,47.691,47.7,90.088,7.949
	c0,0,83.462-113.95,180.176-104.67c0,0,49.022-17.237,124.528-23.853c0,0,189.447-5.294,230.53-9.281
	c41.083-3.97,135.149-11.927,155.024-19.867c0,0,35.755-23.853,42.38-11.909l30.479-1.341c0,0-9.272-64.911,7.957-58.285
	c0,0,3.027-31.448,13.562-20.671c1.505,1.531,3.165,3.935,4.964,7.412c14.582,27.833,18.561,39.751,27.833,47.708
	c9.289,7.94,76.838,6.608,95.381,70.213c0,0,74.208,21.207,54.333,54.315c0,0-5.293,35.764-70.213,17.229
	c0,0-11.935,26.492-37.104,27.815c-25.169,1.323-42.397,9.272-47.691,6.626c0,0-29.147,17.237-33.125,17.237
	c-3.978,0-21.19-2.655-21.19-2.655s2.646,42.38-2.664,58.294c0,0,83.48,74.19,104.687,80.825
	c21.19,6.616,45.044,22.513,58.277,34.44c13.268,11.927,37.105,19.893,47.708,21.199c10.604,1.332,33.126,18.552,17.229,31.802
	c-15.913,13.241-21.207,3.969-34.457-6.625c-13.25-10.613-23.837-9.281-33.108-13.259c-9.289-3.978-29.147-13.25-46.392-21.19
	c-17.212-7.957-121.882-51.669-133.783-63.596c-11.936-11.909-21.225-21.198-21.225-3.986c0,17.245,10.604,145.769,30.479,169.614
	c19.876,23.837,34.44,31.785,49.023,34.432c14.564,2.655,41.065,1.332,33.125,21.207c0,0,0,15.898-54.333,0
	c-54.315-15.905-34.44-15.905-46.358-22.53c-11.936-6.617-27.816-19.867-29.148-37.087c-1.331-17.229-30.479-75.522-34.44-96.721
	c-3.978-21.19-21.208-39.733-18.561-60.941c2.318-18.543-1.453-42.172-13.078-41.584c-1.661,0.096-3.477,0.675-5.466,1.834
	c-15.897,9.271-115.273,0-156.339-15.889c-41.065-15.897-107.317-35.764-128.507-30.479c-21.207,5.301-91.42-5.302-111.295,33.134
	c-19.858,38.419-27.815,68.889-63.587,94.057c-35.772,25.169-58.294,46.368-79.501,59.618c-21.19,13.25-43.712,10.603-42.398,30.479
	c1.332,19.858,0.018,56.962,10.604,63.579c10.604,6.625,49.023,6.625,42.397,22.53c-6.625,15.898-7.94,11.936-34.44,1.332
	c-26.501-10.612-17.23-5.318-26.501-10.612c-9.272-5.302-23.845-11.909-21.19-31.785c2.655-19.884,2.655-59.626,1.323-67.575
	c-1.323-7.948-3.978-15.906,21.199-33.134C223.707,731.353,260.793,699.516,255.5,675.688z"/>
</svg>
