<?xml version="1.0" encoding="utf-8"?>
<!-- Designed by Vexels.com - 2016 All Rights Reserved - https://vexels.com/terms-and-conditions/  -->

<svg version="1.1" id="Layer_1" xmlns="http://www.w3.org/2000/svg" xmlns:xlink="http://www.w3.org/1999/xlink" x="0px" y="0px"
	 width="1200px" height="1200px" viewBox="0 0 1200 1200" enable-background="new 0 0 1200 1200" xml:space="preserve">
<path fill="#4C0022" d="M1132.589,368.432l-52.228-9.142c-23.509-57.463-109.704-33.964-109.704-33.964
	c-54.831-16.971-37.859,24.822-37.859,24.822l-17.599,16.336c-0.665-1.003-1.701-2.449-3.293-4.581
	c-7.839-10.443-37.873,22.189-37.873,22.189s-13.066,5.227-27.425,9.142c-14.368,3.915-65.29,7.831-75.733,5.227
	c-10.453-2.614-26.123-6.519-49.629-9.142c-23.509-2.613-66.6-5.227-66.6-5.227c-228.523-60.067-313.411,61.378-313.411,61.378
	c-44.402,2.614-92.719,54.86-124.059,108.399c-31.341,53.538-87.502,56.152-87.502,56.152
	c-37.853,1.301-65.289-65.303-65.289-65.303c-15.665-28.727-14.359-13.057-14.359-13.057
	c5.227,101.861,77.049,101.861,77.049,101.861c31.335,9.142,91.407-27.426,135.809-87.483
	c44.402-60.087,63.982-50.945,63.982-50.945c0,97.946,80.968,87.493,108.383,92.719c27.426,5.227,36.576,6.528,47.016,31.34
	c10.448,24.812,0,78.351-10.439,94.031c-10.457,15.67-7.839,24.812-1.306,36.557c6.529,11.765,22.194,31.34,27.426,54.85
	c5.217,23.51,30.024,41.793,39.165,52.228c9.146,10.453,28.741,14.367,44.406,20.887c15.666,6.538,20.888-6.519,15.666-22.189
	c-2.58-7.744-10.276-14.523-19.127-21.157c1.142,0.087,2.232,0.164,3.461,0.261c12.055,0.935,23.25-2.295,33.255-7.493
	c28.872,7.3,81.659,27.088,81.659,27.088c49.628,18.293,52.241-16.981,52.241-16.981c1.301-18.274-58.771-18.274-74.435-24.803
	c-7.049-2.941-14.34-10.617-20.955-19.122c0.458-0.597,0.94-1.215,1.365-1.783c11.755-15.661,56.152-83.577,74.431-104.464
	c18.289-20.888,37.874,15.679,37.874,15.679s97.94,70.511,99.246,78.341c1.311,7.84,0,10.444-10.443,31.35
	c-10.448,20.888-7.839,7.84-19.595,26.114c-11.75,18.274,16.982,32.641,33.964,22.188c16.971-10.433,19.58-49.604,33.944-71.812
	c14.364-22.208,11.76-14.378,3.925-35.265c-7.831-20.887-75.752-91.407-75.752-91.407c-11.746-16.982,9.151-27.416,9.151-27.416
	c31.341-14.368,63.982-83.587,66.601-96.643c2.608-13.057,15.66-15.67,15.66-15.67l6.533,7.839l47.015-20.906
	c0,0-6.542-14.359-2.618-11.745c3.915,2.623,39.18-6.529,50.935-9.142c11.746-2.614,48.307,1.311,48.307,1.311
	c24.817,6.519,39.18-3.925,41.788-19.595c2.619-15.66-2.608-18.274-18.278-31.34c-15.666-13.057-14.359-18.284-14.359-18.284
	c70.505,11.756,63.986-27.425,63.986-27.425C1158.712,363.206,1132.589,368.432,1132.589,368.432z M541.022,797.831
	c-8.351-17.251-13.737-40.221-15.661-50.694c-2.608-14.367,15.675-78.36,15.675-78.36c-3.924,18.284,31.331,80.964,36.563,101.85
	c2.261,9.085,3.312,19.653,5.906,29.123C571.074,803.106,553.379,800.512,541.022,797.831z M632.443,727.543
	c-1.452,7.985-3.949,15.978-7.136,23.606c-5.767-11.186-12.083-25.477-18.978-39.267c-10.443-20.906-10.443-112.323-10.443-112.323
	c3.91,9.142,63.982,50.935,63.982,50.935C654.646,658.324,637.67,698.806,632.443,727.543z"/>
</svg>
