<?xml version="1.0" encoding="utf-8"?>
<!-- Designed by Vexels.com - 2016 All Rights Reserved - https://vexels.com/terms-and-conditions/  -->

<svg version="1.1" id="Layer_1" xmlns="http://www.w3.org/2000/svg" xmlns:xlink="http://www.w3.org/1999/xlink" x="0px" y="0px"
	 width="1200px" height="1200px" viewBox="0 0 1200 1200" enable-background="new 0 0 1200 1200" xml:space="preserve">
<path fill="#4C0022" d="M1085.221,355.085c-7.964-3.552-21.261-15.064-21.261-15.064c4.432-14.18-23.924-24.807-23.924-24.807
	c-13.287-18.596-79.727-8.852-79.727-8.852c-16.835-0.892-43.418,31-43.418,31c-8.861,0-14.175,8.861-14.175,8.861l-5.305-3.542
	l-22.158,3.542l-2.649,7.085c-11.526-8.861-51.392,9.744-51.392,9.744c-21.26,7.979-62.898-5.309-62.898-5.309
	c-28.35-14.18-54.929-12.404-54.929-12.404c-28.35,0.883-80.62-13.286-80.62-13.286c-246.291-69.997-317.161,38.978-317.161,38.978
	c-83.289,8.861-111.635,108.092-111.635,108.092c-23.925,51.372-83.269,62.903-83.269,62.903
	c-53.162,5.309-46.965-62.019-46.965-62.019c-48.723,82.391,47.834,85.041,47.834,85.041
	c73.545,0.883,133.788-111.635,133.788-111.635c8.861-26.574,39.875-36.318,39.875-36.318
	c-14.175,105.874,71.312,120.044,71.312,120.044c17.272,11.952,7.969,25.258,7.969,25.258c-9.303,9.303-58.472,25.239-58.472,25.239
	c-29.224,2.66-22.594,38.547-22.594,53.158c0,14.612-5.304,49.164-3.974,67.769c1.324,18.616-5.324,15.956,1.324,61.146
	c6.644,45.16,41.196,10.617,41.196,10.617s6.644-29.234-3.998-41.196C307.372,727.18,314.015,682,314.015,682
	c-1.324-47.849,70.439-63.805,70.439-63.805s2.659,29.243-2.66,42.54c-5.319,13.286,3.979,23.914,18.601,31.912
	c14.617,7.949,31.897,25.23,31.897,23.896c0-1.334,58.462,58.476,58.462,58.476c7.973,34.542,41.201,29.234,43.849,23.915
	c0,0-2.649-35.877-15.941-43.845c-13.282-7.988-49.159-50.499-58.466-67.789c-9.298-17.262,29.224-74.403,29.224-74.403
	c23.934-53.157,5.323-97.013,5.323-97.013c3.984,2.65,26.585,5.309,39.861,6.634c13.297,1.334,53.163,43.864,66.455,58.486
	c13.287,14.602,10.633,37.192,9.293,51.823c-1.32,14.612-7.963,23.915-14.612,39.851c-6.639,15.956-18.606,62.471-31.888,87.73
	c-13.292,25.239-9.308,49.154-9.308,59.781c0,10.628,17.281,57.152,17.281,57.152c6.643,26.575,67.77,17.272,67.77,17.272
	c35.882-31.893-45.19-42.53-45.19-42.53c-6.825-7.497-3.13-18.165,1.904-30.009c27.384,1.149,100.428-27.123,100.428-27.123
	c17.276-10.638,10.637-38.546,10.637-38.546c-9.298-21.256,3.984-120.918,3.984-120.918c-1.325-14.622,38.536-18.606,38.536-18.606
	c27.909,5.299,99.672-75.758,99.672-75.758c38.527,1.335,55.802-42.51,55.802-42.51l7.979,10.627c0,0,31.897-11.962,45.184-15.946
	c13.287-3.994,13.287-15.937,19.936-21.265c6.639-5.319,15.946-6.644,25.244-5.319c9.308,1.324,13.292,1.324,35.887,5.319
	c22.585,3.983,63.781-7.969,63.781-7.969c21.265-17.281,6.648-38.546,6.648-38.546c23.92-5.319,38.988-40.303,38.988-40.303
	C1158.755,343.564,1093.188,358.627,1085.221,355.085z M648.898,772.36c-5.319-7.969-13.282,6.653-29.238,0
	c-3.096-1.295-6.585-1.571-10.201-1.188c9.381-26.349,36.785-62.608,36.785-62.608S654.207,780.327,648.898,772.36z"/>
</svg>
