<?xml version="1.0" encoding="utf-8"?>
<!-- Designed by Vexels.com - 2017 All Rights Reserved - https://vexels.com/terms-and-conditions/  -->

<svg version="1.1" id="Layer_1" xmlns="http://www.w3.org/2000/svg" xmlns:xlink="http://www.w3.org/1999/xlink" x="0px" y="0px"
	 width="1200px" height="1200px" viewBox="0 0 1200 1200" enable-background="new 0 0 1200 1200" xml:space="preserve">
<path fill="#3D2017" d="M1141.34,458.52c-6.133-5.108-18.407-12.267-23.514-41.909c-5.111-29.642-41.913-64.403-41.913-67.47
	c0,0-27.614-32.733-27.614-39.894c0-7.136-2.034-29.642-5.107-32.721c-3.067-3.054-14.318,8.187-14.318,8.187l-4.084-8.187
	c0,0-9.194,21.48-14.31,31.72c-5.123,10.215-25.564,13.294-35.788,10.215c-10.22-3.08-35.779-15.347-41.918-20.454
	c-6.133-5.107-5.117,8.187-7.157,16.373c-2.037,8.162-12.267-4.105-22.488-9.212c-10.23-5.12-7.157-2.053-11.254,3.079
	c-4.089,5.107,9.207,12.243,7.16,17.374c-2.046,5.108-8.177,4.081-10.227-3.079c-2.044-7.16-9.201,0-20.441-3.054
	c-11.247-3.079-6.137,4.081-14.321,7.148c-8.168,3.067-21.471-7.148-22.484,0c-1.024,7.16,23.517,21.468,8.183,23.52
	c-15.346,2.053-28.637-16.36-28.637-16.36c-2.044,5.119,4.087,30.668,17.384,36.802c13.284,6.133,17.381,18.401,1.023,18.401
	s-52.151,7.16-52.151,7.16c-261.728,31.694-287.289,13.294-287.289,13.294c-112.455-41.91-187.092,4.105-187.092,4.105
	s-33.741,10.202-44.989,13.269c-11.247,3.067-48.055,4.081-82.817,17.375c-34.755,13.306-50.086,4.105-58.273-2.029
	c-8.183-6.133-27.604-26.587-30.674-27.614c-3.064-1.002-4.087,9.2-1.017,20.454c3.066,11.241-6.137,6.121-9.207,11.241
	c-3.063,5.107-3.063,7.16-5.11,20.453c-2.046,13.282-6.133,13.282-5.11,27.602c1.017,14.32,33.741,11.241,49.079,9.213
	c15.334-2.053,52.139,11.241,90.988-31.72c38.848-42.923,79.743-27.601,79.743-27.601c-42.939,38.855,7.166,140.072,7.166,140.072
	s-20.448,10.227-36.808,11.266c-16.363,1.002-28.63-5.12-44.985-11.266c-16.357-6.134-30.672,4.093-31.695,13.306
	c-1.02,9.2-15.331,27.589-30.668,59.296c-15.337,31.682-21.471,52.136-35.785,54.176c-14.32,2.053-8.183,15.347-13.294,15.347
	c-5.113,0-13.291,0-20.451,6.133c-7.151,6.121-24.535-7.16-24.535-7.16c-10.224,10.214,0,44.976,0,44.976
	s25.561-11.241,34.759-15.322c9.2-4.093,25.564-6.133,38.855-12.279c13.29-6.134,51.119-96.098,56.229-98.151
	c5.111-2.04,19.428-5.107,24.538-9.2c5.113-4.081,19.431,15.346,19.431,15.346c-2.047,11.254,35.781,81.79,39.866,92.005
	c4.096,10.227,5.11,10.227-3.067,16.361c-8.174,6.146-12.264,23.52-12.264,23.52c-2.047,6.134-11.247,4.081-11.247,4.081
	c-4.09-1.014-15.334-4.081-15.334-4.081c-7.156,7.148,1.017,37.816,1.017,37.816l19.427-9.188
	c7.16-3.079,24.538-27.614,32.721-39.869c0,0,11.241-7.16,12.267-20.453c1.023-13.294-29.651-70.549-37.828-87.924
	c-8.18-17.386,3.067-17.386,3.067-17.386c11.247,5.119,71.56,12.267,82.814,9.212c11.243-3.079,41.912-8.186,41.912-8.186
	c15.334,0,15.334-23.508,15.334-23.508c40.904-22.495,47.038-67.482,47.038-67.482c9.55,29.604,186.782,71.699,210.108,77.128
	c1.88,0.458,4.05,0.965,6.635,1.596c33.741,8.174-12.267,59.296-21.471,77.696c-9.203,18.401-20.448,41.934-26.575,49.069
	c-6.146,7.16-32.721,13.306-41.925,10.239c-9.203-3.079-26.575-4.093-39.871-7.16c-13.294-3.08-29.651-12.267-29.651-12.267
	c-8.18-12.28-26.575-6.134-26.575-6.134c-16.361,7.148-24.547-18.413-24.547-18.413c-14.314,5.12-22.481,38.843-22.481,38.843
	s19.427,0,34.758-1.002c15.331-1.026,60.313,22.494,67.464,20.441c7.166-2.053,81.799,8.174,81.799,8.174s7.157-3.067,17.381-7.16
	c10.224-4.081,22.5-21.456,22.5-21.456s38.849-58.282,47.026-65.442c8.177-7.148,6.124-3.066,14.307-2.053
	c8.183,1.039,3.073,37.828-2.04,50.096c-5.11,12.28-2.05,54.201-1.026,70.562c1.026,16.348-7.157,58.269-7.157,58.269
	c-8.174,18.401,9.207,24.535,25.558,24.535c16.367,0,19.424,18.413,19.424,18.413c5.116,9.2,38.851,1.014,38.851,1.014
	l-12.261-19.428c1.02-9.2-13.297-12.255-21.474-12.255c-8.174,0-14.311-7.172-20.451-14.32c-6.13-7.16-3.064-19.427-3.064-31.694
	c0-12.267,24.544-148.259,31.692-166.66c7.157-18.401,25.558-28.615,25.558-28.615c34.764-9.213,50.099-39.882,50.099-39.882
	c10.23-1.014,22.491-36.814,29.657-47.029c7.151-10.227,80.761-90.991,96.107-115.525c15.334-24.522,40.889-19.427,40.889-19.427
	c2.037,7.148,40.895,22.494,40.895,22.494c14.308,6.121,46.002,39.869,46.002,39.869c1.029,15.346,27.608,6.133,27.608,6.133
	s-15.334-3.067,3.073-1.026c18.401,2.053,26.575-20.441,26.575-20.441C1155.657,463.639,1141.34,458.52,1141.34,458.52z"/>
</svg>
