<?xml version="1.0" encoding="utf-8"?>
<!-- Designed by Vexels.com - 2017 All Rights Reserved - https://vexels.com/terms-and-conditions/  -->

<svg version="1.1" id="Layer_1" xmlns="http://www.w3.org/2000/svg" xmlns:xlink="http://www.w3.org/1999/xlink" x="0px" y="0px"
	 width="1200px" height="1200px" viewBox="0 0 1200 1200" enable-background="new 0 0 1200 1200" xml:space="preserve">
<g>
	<path fill="#3D2017" d="M833.612,759.962c0,0,0.772-0.449,2.038-1.076C836.891,754.058,833.612,759.962,833.612,759.962z"/>
	<path fill="#3D2017" d="M1134.956,454.421c-11.504-42.904-48.144-121.379-64.875-150.682c-16.744-29.296-52.32-11.507-55.459-8.369
		c-3.138,3.139-5.227,13.603-18.832,2.092c-11.188-9.467-32.286-16.099-39.424-18.156c2.709,2.917-2.43,13.973-2.43,13.973
		c-66.976-8.372-93.136,33.482-93.136,33.482s45.005,16.741-3.139,1.047c-48.119-15.691-55.459,17.791-55.459,17.791
		c-29.299-8.375-123.474,30.34-123.474,30.34c-72.191,36.627-228.102,20.93-228.102,20.93
		c-100.452-27.211-163.239,30.343-182.059,41.854c-18.832,11.511-71.166-14.647-88.947-16.744
		c-17.795-2.092-75.33-13.599-88.948-14.647c-13.593-1.05-30.337,13.603-37.665,16.744c-7.328,3.136,1.05,20.921,1.05,31.388
		c0,10.463,15.694,19.883,7.328,32.435c-8.379,12.557,8.366,32.437,8.366,32.437c0-18.835,50.22-33.482,62.787-36.623
		c12.555-3.136,3.139,20.93,34.527-10.464c31.387-31.384,99.401-1.044,99.401-1.044c-21.971,16.744-11.505,142.309-7.328,149.627
		c4.189,7.325,8.366,21.971,4.189,28.255c-4.189,6.28-29.299,26.16-56.497,47.087c-27.211,20.924-17.795,36.623-11.504,57.547
		c6.277,20.934-6.29,97.31-8.366,110.919c-2.101,13.605,14.643,33.485,20.92,33.485c6.277,0,18.832,2.088,18.832,2.088l3.152,16.744
		c4.163,6.281,49.169,2.092,49.169,2.092c-5.24-23.016-37.665-37.674-42.905-46.043c-5.227-8.366-8.379-5.23-14.643-14.643
		c-6.278-9.417,4.189-57.558,1.038-81.623c-3.139-24.063,33.488-43.943,33.488-43.943c11.505-7.325,103.591-76.39,103.591-76.39
		c8.379,3.139,25.11-11.501,25.11-11.501c10.467,4.18,25.123,54.412,26.161,82.661c1.05,28.249-2.089,32.435,18.845,44.99
		c20.921,12.557,59.636,45.002,59.636,45.002c18.832,25.103,59.636,51.267,59.636,51.267c14.656-2.094,17.795,13.599,17.795,13.599
		c-3.139,8.369,3.139,23.019,3.139,23.019c5.24,9.416,47.081,6.284,47.081,6.284c-6.277-25.123-48.131-62.781-48.131-62.781
		c-9.404-17.795-101.503-91.039-101.503-91.039c0-7.325-6.265-33.479-6.265-33.479c-10.466-14.649-1.05-134.987-1.05-134.987
		c-3.151-17.789,36.627,1.05,36.627,1.05c64.863,36.627,245.885,39.762,245.885,39.762c-7.315,11.508,8.378,25.113,16.744,20.924
		c8.379-4.18,62.788-10.463,73.254-8.359c10.454,2.088,52.308,36.614,57.548,40.806c5.227,4.177,1.05,16.734-3.151,23.016
		c-4.177,6.277-12.555,20.927-14.631,28.249c-2.101,7.324-15.706,18.839-15.706,18.839c-6.467-2.43-16.668,2.012-20.971,4.158
		c-0.341,1.269-0.962,3.262-2.038,6.306c-5.24,14.65,11.049,43.949,11.049,43.949l17.2-30.34c0,0,15.694-23.028,27.198-29.302
		c11.517-6.284,9.416-9.42,11.517-24.069c2.089-14.649,17.782-23.018,17.782-23.018c9.416,1.044,88.947,60.689,95.225,68.011
		c6.277,7.324,18.82,23.025,28.249,24.065c9.416,1.048,7.328,14.653,16.744,12.549c9.417-2.085,7.328,21.983,7.328,21.983
		c12.542,7.318,49.169,3.139,49.169,3.139c2.101-13.599-36.627-37.671-41.854-41.857c-5.24-4.186-16.744-19.879-28.249-29.298
		c-11.517-9.42-18.832-3.136-35.576-27.198c-16.744-24.069-69.065-60.702-74.292-64.882c-5.239-4.18,1.038-26.16-3.138-39.762
		c-4.177-13.605-48.132-18.839-62.788-25.11c-14.643-6.281-10.466-18.836-10.466-18.836c16.756-16.738,10.466-51.273,12.555-54.412
		c2.101-3.141,8.379-4.185,7.328-16.74c-1.037-12.555,11.517-20.927,11.517-20.927c6.277,0,40.804-40.81,72.191-65.923
		c31.4-25.113,42.904-7.322,42.904-7.322c2.101,9.413,26.16,23.015,26.16,23.015c15.694,1.05,48.132,55.463,48.132,55.463
		c-5.227,28.249,33.488,17.791,33.488,17.791c19.883,4.183,29.299-18.842,29.299-18.842
		C1163.204,485.811,1134.956,454.421,1134.956,454.421z"/>
	<path fill="#3D2017" d="M953.935,278.629c0,0,0.899,0.235,2.43,0.677C955.859,278.756,955.099,278.459,953.935,278.629z"/>
</g>
</svg>
