<?xml version="1.0" encoding="utf-8"?>
<!-- Designed by Vexels.com - 2017 All Rights Reserved - https://vexels.com/terms-and-conditions/  -->

<svg version="1.1" id="Layer_1" xmlns="http://www.w3.org/2000/svg" xmlns:xlink="http://www.w3.org/1999/xlink" x="0px" y="0px"
	 width="1200px" height="1200px" viewBox="0 0 1200 1200" enable-background="new 0 0 1200 1200" xml:space="preserve">
<g>
	<path fill="#3D2017" d="M905.294,299.3c-0.386-0.135-0.811-0.222-1.314-0.222C903.98,299.078,904.47,299.153,905.294,299.3z"/>
	<path fill="#3D2017" d="M1135.105,453.51c-9.584-44.731-105.443-146.976-105.443-146.976c-29.823-36.212-42.602-3.198-42.602-3.198
		c-11.723-11.713-50.049,12.783-50.049,12.783c-9.146-11.871-26.847-15.91-31.717-16.818c6.854,2.502-5.565,26.402-5.565,26.402
		c-11.723-3.194-26.641,12.786-34.087,15.975c-7.446,3.195-18.1,6.393-31.948,2.135c-13.849-4.26-17.044-18.11-17.044-18.11
		c-2.138,3.198-4.264,23.434-4.264,23.434c-12.779-3.198-18.1,10.65-18.1,10.65c13.849-5.323,18.1,7.456,18.1,7.456
		c-12.779-2.132-22.364,13.845-22.364,13.845c28.766-9.588,29.822,24.493,29.822,24.493c-53.256,26.635-318.468,4.264-318.468,4.264
		c-93.72-28.757-157.617,13.849-182.12,33.012C294.766,462.032,266,471.62,266,471.62c-13.836-3.195-43.672-15.971-58.577-18.11
		c-14.918-2.126-58.576,3.195-82.01-6.387c-23.433-9.588-30.879,6.387-52.187,10.651c-21.307,4.258-26.628,15.98-21.307,23.43
		c5.333,7.456,5.333,26.631,5.333,26.631c4.264-5.324,15.974,14.909,15.974,14.909c-3.194,23.43,34.087,44.734,34.087,44.734
		c0-26.628,31.949-38.345,51.118-61.778c19.169-23.43,29.823,7.459,29.823,7.459c6.389-13.846,22.351-15.978,22.351-15.978
		c31.961-18.106,77.758-2.129,77.758-2.129c-3.195,6.39-3.195,39.411-3.195,39.411c-4.264,35.144,103.318,99.047,124.626,110.761
		c21.295,11.717-11.723,66.036-11.723,66.036c-20.238,30.892,58.577,33.018,58.577,33.018
		c-10.641,10.65,14.918,31.952,14.918,31.952c12.663-2.921,99.196,71.608,113.946,84.406c-1.43-1.021-2.319-0.895,2.152,6.126
		c7.446,11.717,14.905,10.654,14.905,10.654c20.252-3.195,11.723,20.238,11.723,20.238l47.923,12.779l-12.792-29.826
		c-11.71-29.82-137.38-116.093-137.38-116.093c-7.459-25.559,36.213-5.324,38.352,0c2.113,5.327,28.754,10.654,28.754,10.654
		c-3.195,8.522,7.446,11.717,7.446,11.717c-5.333,3.198-4.252,20.238-4.252,20.238l30.88,13.843l-6.39-34.081
		c2.126-21.301-20.238-28.757-20.238-28.757c-1.069-17.044-22.351-23.436-22.351-23.436c-13.849,1.066-62.854-13.843-62.854-13.843
		c6.389-22.37-9.584-75.623-9.584-75.623c7.446-15.977-1.069-31.948-1.069-31.948c0.013-8.525,13.835-24.5,22.351-2.132
		c8.528,22.364,166.172,61.772,174.687,69.231c8.515,7.456,6.39,12.78,10.654,28.757c4.252,15.974,36.213,79.881,36.213,79.881
		c-5.333,5.327-42.603-2.129-42.603-2.129c-4.264-7.453-29.823-8.522-37.282-15.978c-7.459-7.453-19.169-40.473-19.169-40.473
		c2.126-9.585-3.208-27.691-3.208-27.691c-9.572-9.588-43.659,6.39-43.659,6.39s13.849,18.106,17.031,19.169
		c3.194,1.069,26.628,41.54,28.766,46.867c2.126,5.32,5.333,27.694,10.654,23.43c5.321-4.258,85.205,18.107,90.525,21.301
		c5.321,3.198,24.503-8.518,29.836-20.235c5.32-11.717-13.862-109.698-13.862-109.698s1.572-0.116,4.251-0.251
		c11.595-0.576,43.891-1.549,58.59,4.509c18.099,7.449,44.741,3.192,60.715,4.258c15.974,1.069,23.434,5.327,28.754,18.104
		c5.32,12.785-7.459,73.488-12.779,75.623c-5.333,2.132-6.403,14.914-5.333,22.367c1.082,7.456-7.446,13.842-7.446,13.842
		c-10.654-4.264-18.113,13.849-18.113,13.849c-3.195,17.044,6.39,34.084,6.39,34.084c12.792-1.063,24.502-39.407,31.961-46.863
		c7.446-7.455,15.961-7.455,15.961-23.433c0-15.98,7.472-66.036,13.849-75.62c6.39-9.588-3.195-27.695-4.251-33.018
		c-1.069-5.323-7.459-15.974-18.113-19.169c-10.641-3.195-18.1-2.129-30.88-12.779c-12.78-10.651-37.282-20.242-37.282-20.242
		c6.389-7.456,9.584-26.625,9.584-26.625c15.974-7.456,36.226-72.426,36.226-72.426c7.446-4.261,50.048-57.514,67.092-88.406
		c17.044-30.882,51.118-22.361,51.118-22.361c12.779,21.298,30.879,15.977,30.879,15.977c14.918,1.067,63.911,43.668,63.911,43.668
		c-3.195,28.754,30.892,4.261,30.892,4.261c15.974,1.066,18.113-17.044,18.113-17.044
		C1159.608,463.098,1135.105,453.51,1135.105,453.51z"/>
</g>
</svg>
