<?xml version="1.0" encoding="utf-8"?>
<!-- Designed by Vexels.com - 2017 All Rights Reserved - https://vexels.com/terms-and-conditions/  -->

<svg version="1.1" id="Layer_1" xmlns="http://www.w3.org/2000/svg" xmlns:xlink="http://www.w3.org/1999/xlink" x="0px" y="0px"
	 width="1200px" height="1200px" viewBox="0 0 1200 1200" enable-background="new 0 0 1200 1200" xml:space="preserve">
<path fill="#3D2017" d="M1144.639,470.214c-8.459,1.062-13.744-12.692-13.744-12.692c-25.404-38.093-88.88-113.211-88.88-113.211
	c-13.757-33.86-40.198-31.745-40.198-31.745c-24.341-24.335-35.974,13.757-35.974,13.757c-27.515-11.64-17.994,6.347-17.994,6.347
	l-16.931,6.348c-28.564-10.584-29.627-2.115-29.627-2.115c7.41-4.233,8.46,11.636,8.46,11.636
	c-10.571,12.695-45.496,24.335-45.496,24.335c-25.391,14.813-43.371-15.869-43.371-15.869c-4.224,8.462-4.236,20.102-4.236,20.102
	c-4.236,5.288-11.646,2.114-11.646,2.114c-5.285,7.404,8.472,24.338,8.472,24.338c-40.21,38.089-284.621,34.915-284.621,34.915
	c-44.433-13.754-105.811-15.873-138.612-13.754c-32.801,2.111-69.824,29.62-89.929,44.436
	c-20.105,14.813-44.434,19.046-44.434,19.046c-48.669-5.292-170.35-13.754-170.35-13.754c-66.663,4.23-19.056,62.427-19.056,62.427
	c-11.633,28.564,12.708,25.391,12.708,25.391c-2.124,15.872,14.807,20.105,14.807,20.105c-6.347-21.164,26.453-37.033,26.453-37.033
	c-3.174,34.915,19.043,1.056,32.801-10.581c13.757-11.64,11.633-7.404,23.266-4.23c11.646,3.167,25.403-8.469,25.403-8.469
	c11.646-17.987,60.316-12.692,60.316-12.692c16.918-6.347,26.453,6.345,26.453,6.345c-34.925,84.647,96.277,125.91,96.277,125.91
	c20.105,11.64-35.975,75.12-35.975,75.12c-12.695,20.111,10.584,26.455,10.584,26.455c21.167,0,131.202,47.617,131.202,47.617
	s0,0,1.05,4.227c1.062,4.23,15.882,10.58,15.882,10.58v21.161l23.919-12.708l1.472,1.069c21.168,2.118,93.116,57.142,93.116,57.142
	l-8.472,10.578l27.502,12.695c12.708-11.633,0-34.915,0-34.915c-5.055-8.603-37.728-30.769-70.425-51.552l74.675,35.68
	c27.49,17.981,44.433-17.987,44.433-17.987c4.223-3.177,39.148-102.631,39.148-102.631s0,25.394,2.112-4.236
	c2.111-29.62,103.687,19.052,121.68,26.453c17.981,7.41,14.807,11.636,11.633,21.161c-3.174,9.528-42.335,55.024-51.843,63.486
	c-9.521,8.459-32.801,15.869-32.801,15.869c-9.521,2.118-17.994-9.522-17.994-9.522l-15.856,32.804l31.739-2.118
	c0,0,21.155-8.465,29.626-12.701c8.472-4.23,25.391-2.112,25.391-11.636c0-9.525,55.017-71.949,57.129-80.411
	c2.124-8.462,0-19.046-8.459-25.397c-8.459-6.344-34.925-25.393-34.925-25.393c-10.571-17.981-35.974-32.794-35.974-32.794
	c27.515-9.525,65.601-95.224,65.601-95.224c12.695-7.41,43.397-69.831,69.837-105.812c26.453-35.974,57.142-23.272,57.142-23.272
	c4.223,6.347,39.135,16.928,39.135,16.928c15.882,3.18,52.919,37.033,52.919,37.033c-2.124,29.63,23.279-1.059,23.279-1.059
	c28.565,8.462,25.378-21.164,25.378-21.164C1154.173,479.741,1144.639,470.214,1144.639,470.214z M420.929,682.889
	c0,0-2.009-0.668-3.2-1.068c0.013,0.009,0.013,0.012,0.013,0.012c3.186,1.056,21.18-2.118,21.18-2.118
	c12.695,7.259,9.061,54.947,7.768,68.397c-18.108-8.084-41.631-23.957-41.631-23.957
	C394.476,715.69,420.929,682.889,420.929,682.889z M683.333,719.916c-5.286,15.873-14.82,99.457-14.82,99.457
	c-5.286-1.052-10.571,8.469-15.869,7.41c-5.286-1.056-63.477-32.801-63.477-32.801c-3.174-10.58-23.279-11.636-23.279-11.636
	l-9.534-23.279c-7.103,0-18.301,15.873-23.561,23.958c-17.188-10.452-29.346-17.606-29.346-17.606
	c0-8.466-13.744-35.971-13.744-35.971c11.633-27.512,11.633-108.982,11.633-108.982c7.409-9.521,19.043,5.285,19.043,5.285
	c10.597,17.988,150.258,64.545,150.258,64.545C687.556,698.755,683.333,719.916,683.333,719.916z"/>
</svg>
