<?xml version="1.0" encoding="utf-8"?>
<!-- Designed by Vexels.com - 2017 All Rights Reserved - https://vexels.com/terms-and-conditions/  -->

<svg version="1.1" id="Layer_1" xmlns="http://www.w3.org/2000/svg" xmlns:xlink="http://www.w3.org/1999/xlink" x="0px" y="0px"
	 width="1200px" height="1200px" viewBox="0 0 1200 1200" enable-background="new 0 0 1200 1200" xml:space="preserve">
<path fill="#3D2017" d="M1139.2,484.524c-11.6-4.223-61.175-82.273-61.175-82.273c-20.039-28.478-72.785-68.556-72.785-68.556
	c0-11.603-3.154-21.095-16.868-22.154c-13.714-1.052-5.272,27.426-5.272,27.426c-8.442,7.386-50.628,5.272-50.628,5.272
	c-28.481-11.603-21.091,16.875-21.091,16.875c-10.553-2.108-24.262,8.439-24.262,8.439c9.489-2.111,2.102,20.042,2.102,20.042
	c-12.646,9.488-50.625,12.656-50.625,12.656c-25.311-5.272-37.96,20.038-37.96,20.038c8.427-3.163,7.377,6.331,7.377,6.331
	c-13.718,8.439-66.447,24.261-101.263,27.422c-34.8,3.164-174.029,7.387-199.34,2.112c-25.314-5.273-71.716-10.544-111.8-9.495
	c-40.081,1.056-99.148,47.464-120.243,54.848c-21.091,7.38-42.193,2.105-73.831,0c-31.645-2.111-46.412-2.111-71.726,1.055
	c-25.314,3.161-34.806-9.495-46.402-9.495c-11.609,0-25.317,25.317-25.317,34.806c0,9.495,11.603,22.154,3.167,31.646
	c-8.442,9.491-16.882,20.035-6.337,20.035c10.55,0,26.37-15.819,26.37-15.819c14.773-8.439,6.337,15.819,6.337,15.819
	c-40.087,20.046-12.662,24.262-1.065,22.153c11.61-2.114,48.526-34.809,79.11-51.681c30.586-16.881,65.398-21.1,65.398-21.1
	c42.192-13.712,53.785,4.22,53.785,4.22c-29.527,93.867,51.684,116.023,62.232,120.243c10.547,4.213,7.386,14.763-6.322,24.255
	c-13.718,9.492-43.251,35.862-43.251,35.862c-21.091,8.436-12.659,28.478,3.167,32.697c15.819,4.216,107.581,65.395,116.023,73.831
	c8.433,8.439,5.272,18.987,5.272,18.987c-10.547,3.164-5.272,21.098-5.272,21.098l13.704,26.37
	c9.498-7.39,10.557-51.687,10.557-51.687c7.377-15.819-10.557-30.589-10.557-30.589l-27.049-20.033
	c7.476,4.781,15.452,7.377,15.452,7.377c18.984-2.109,108.637,48.517,112.86,52.736c1.63,1.636,4.701,6.602,7.833,12.069
	l-17.331-2.568l5.275,27.425c2.583-3.243,11.446-4.883,22.46-5.613c4.417,8.595,32.388,5.604,32.388,5.604
	c0-1.608-0.466-3.614-1.235-5.859c16.186,0.513,29.703,1.649,29.703,1.649c16.884,2.105,39.028-18.983,39.028-18.983
	s4.025-5.314,10.317-13.59l11.833-1.183c0,0,0,0,1.059,6.331c1.052,6.325,9.495,5.275,9.495,5.275
	c7.377-1.056,29.485,10.522,29.524,10.544c0.986,0.791,2.641,2.108,5.285,4.22c10.541,8.439,24.259,2.111,24.259,2.111
	c9.485-7.386,70.667-29.53,70.667-29.53c10.538-2.114,17.927-23.202,17.927-23.202c3.157-13.714-42.189-91.765-42.189-91.765
	c-5.275-9.492,2.112-14.77,2.112-14.77c46.412-13.711,69.608-90.709,69.608-90.709C885,605.816,931.422,523.546,951.46,498.232
	c20.033-25.311,51.678-23.203,51.678-23.203c13.711,7.38,44.294,16.878,44.294,16.878c14.773,3.161,48.523,37.966,48.523,37.966
	c5.266,21.098,27.425-2.104,27.425-2.104c27.419,6.321,24.262-24.262,24.262-24.262C1156.068,491.898,1139.2,484.524,1139.2,484.524
	z M412.481,728.164c-3.17,5.275-5.275,10.544-18.989,31.642c-5.964,9.182-1.936,16.77,4.526,22.409l-53.04-39.287
	c-8.439-13.708,30.596-41.134,30.596-41.134c10.544-1.052,24.249-12.658,24.249-12.658
	C419.868,682.807,415.651,722.888,412.481,728.164z M642.416,819.932c-3.171,10.547-23.21,30.586-32.695,34.809
	c-5.314,2.353-23.129,3.725-37.823,4.471c-6.175-10.196-12.812-19.251-12.812-19.251c0-23.2-111.791-64.333-111.791-64.333
	c-8.446-7.387-5.282-28.478-5.282-28.478c45.356-70.67,45.356-103.371,45.356-103.371c6.338-15.823,30.583,0.007,30.583,0.007
	c9.495,15.822,158.209,69.621,158.209,69.621c17.931,7.38-2.109,44.297-7.384,50.619
	C663.508,770.356,645.57,809.384,642.416,819.932z M803.789,803.053c8.442,11.6,7.38,15.82-5.275,24.259
	c-12.662,8.438-55.897,23.206-70.667,25.317c-14.764,2.112-34.803-10.55-34.803-10.55c-1.056-10.55-13.718-12.659-13.718-12.659
	l-3.563-3.569c21.178-27.843,48.782-64.023,56.308-73.426C744.722,736.606,795.356,791.457,803.789,803.053z"/>
</svg>
