<?xml version="1.0" encoding="utf-8"?>
<!-- Designed by Vexels.com - 2017 All Rights Reserved - https://vexels.com/terms-and-conditions/  -->

<svg version="1.1" id="Layer_1" xmlns="http://www.w3.org/2000/svg" xmlns:xlink="http://www.w3.org/1999/xlink" x="0px" y="0px"
	 width="1200px" height="1200px" viewBox="0 0 1200 1200" enable-background="new 0 0 1200 1200" xml:space="preserve">
<g>
	<path fill="#3D2017" d="M893.93,305.905c0,0,0.579,0.035,1.512,0.035C894.967,305.764,894.463,305.727,893.93,305.905z"/>
	<path fill="#3D2017" d="M1130.547,416.278c-23.79-41.64-86.586-103.765-89.224-107.728c-2.654-3.966-9.916-3.306-13.883-9.917
		c-3.963-6.608-19.164-26.436-19.164-26.436c-16.525-11.899-42.96,19.828-42.96,19.828c-5.287,4.629-17.183,3.302-29.745,2.645
		c-12.559-0.661-18.507,2.642-24.454,7.271c-4.62,3.594-12.421,3.998-15.674,3.998c3.109,1.121,5.102,8.555,5.102,8.555
		c-9.92,0.664-17.185,5.29-17.185,5.29c7.929-3.969,10.571,12.559,10.571,12.559c-52.208,5.287-70.057,33.707-70.057,33.707
		c-14.537,9.254-5.287,13.877-5.287,13.877c-17.843,14.544-19.828,11.899-19.828,11.899c-97.15-2.645-116.318,5.947-116.318,5.947
		c-62.791,11.235-144.087,8.589-144.087,8.589c-14.54,1.318-87.9-16.528-130.861-19.83c-42.958-3.303-87.9,27.759-87.9,27.759
		c-10.577-1.324-14.541,4.627-41.643,11.896c-27.097,7.269-72.039,1.985-79.971,0.664c-7.927-1.327-16.522,3.306-28.42,0
		c-11.892-3.305-16.522,1.321-28.42,5.287c-11.899,3.963-4.627,4.624-25.112-9.916c-20.488-14.541-21.152,3.966-21.152,3.966
		l-9.913-2.642c-33.708-8.593-26.439,33.711-26.439,33.711c-22.476,24.451,6.615,42.958,6.615,42.958
		c-5.29,17.84,7.266,25.115,7.266,25.115c25.115-0.664,85.918-32.387,115.666-59.483c29.741-27.097,88.56-17.846,93.187-17.846
		c4.63,0,3.305,13.219,3.305,13.219c-50.893,62.128,31.066,120.95,31.066,120.95c-5.954,8.593-29.747,19.825-64.115,28.417
		c-34.372,8.596-15.204,29.744-9.257,34.368c5.957,4.627,93.193,93.854,93.193,93.854c-8.593,7.932,4.624,15.201,3.97,18.507
		c-0.664,3.305-0.664,14.537-4.63,17.846c-3.966,3.305-14.543,5.944-14.543,5.944l13.219,33.05l15.865-21.148
		c12.556-2.645,13.876-42.301,13.876-42.301c11.238-15.868-11.231-33.046-11.231-33.046c-9.169-7.115-17.54-15.598-24.833-24.114
		c7.448,2.952,19.543,1.644,19.543,1.644c11.892,0.657,115.663,64.106,115.663,64.106c-1.982,6.608,9.253,21.809,9.253,21.809
		c-3.963,3.309-14.54,16.529-14.54,16.529l29.741,24.451l5.948-44.945c1.321-31.723-15.198-37.668-15.198-37.668
		c-7.932-6.608-80.638-50.89-80.638-50.89c-11.895-5.951,0.667-27.099,0.667-27.099c94.508-68.076,80.632-94.508,80.632-94.508
		c25.121,23.127,192.995,79.304,198.276,81.289c5.284,1.981,2.639,23.79,2.639,23.79c-18.503,7.272-43.618,47.587-48.899,56.844
		c-3.024,5.277-7.332,10.556-10.474,14.115l-2.755-3.541c-5.938-11.901-33.698-9.914-33.698-9.914
		c-24.461,0.651,15.201,25.112,15.201,25.112c-2.003,6.18-2.163,11.335-1.243,15.627c-20.131,26.189-83.355,69.631-83.355,69.631
		c-13.884,9.914-9.92,19.831-9.92,19.831c-9.914-1.985-7.266,14.541-7.266,14.541c-1.988-3.309-12.556,0-12.556,0
		c-11.238-3.97-17.188,12.556-17.188,12.556l1.984,43.615c26.436-11.892,40.979-50.884,40.979-50.884
		c7.269,1.321,19.164-12.562,26.433-21.152c7.274-8.593,36.353-35.026,48.908-45.606c7.184-6.045,19.759-15.329,30.211-23.659
		l16.052,4.495c3.966,10.574,95.835,9.914,95.835,9.914c7.935,1.982,27.76-13.88,27.76-13.88c8.593-11.899,0-124.914,0-124.914
		c68.736,3.963,94.512-85.261,94.512-85.261c22.472-13.213,66.751-79.307,74.027-96.493c7.271-17.183,43.621-54.196,51.556-62.788
		c7.926-8.593,29.738-7.935,29.738-7.935c-1.324,7.932,32.387,13.223,32.387,13.223c2.642,4.629,58.823,37.013,58.823,37.013
		c3.299,26.436,28.417,3.305,28.417,3.305c21.809,2.639,21.145-22.472,21.145-22.472
		C1160.946,432.139,1130.547,416.278,1130.547,416.278z M357.258,643.639c-15.201,5.944-32.387,34.368-32.387,34.368
		c-2.441,3.547-3.422,6.38-3.406,8.652c-15.126-19.067-24.351-36.412-24.351-36.412c-1.317-18.506,58.822-14.54,58.822-14.54
		C368.495,633.061,357.258,643.639,357.258,643.639z M726.057,777.142c-5.288,4.63-61.464,2.648-74.027,1.324
		c-9.523-1.005-12.963-7.703-14.062-10.881c16.431-16.193,60.328-53.889,60.328-53.889c7.272,0,15.868-3.306,15.868-3.306
		c-2.655,10.578,10.568,33.047,10.568,33.047c3.305,1.982,6.612,26.436,6.612,26.436
		C727.377,769.213,726.057,777.142,726.057,777.142z"/>
</g>
</svg>
