<?xml version="1.0" encoding="utf-8"?>
<!-- Designed by Vexels.com - 2017 All Rights Reserved - https://vexels.com/terms-and-conditions/  -->

<svg version="1.1" id="Layer_1" xmlns="http://www.w3.org/2000/svg" xmlns:xlink="http://www.w3.org/1999/xlink" x="0px" y="0px"
	 width="1200px" height="1200px" viewBox="0 0 1200 1200" enable-background="new 0 0 1200 1200" xml:space="preserve">
<path fill="#3D2017" d="M1146.254,478.327c-5.701-6.647-21.867-46.587-30.423-64.653c-8.554-18.055-45.641-73.209-42.786-83.663
	c2.852-10.454-17.118-32.338-17.118-32.338l-4.755,5.704l-7.599-3.795c0,0-5.71,26.611-11.414,32.326
	c-5.707,5.716-23.771,0-35.182-4.749c-11.405-4.761-27.571-13.329-29.469-19.976c-1.9-6.647-10.462,0-18.066,4.761
	c-7.604,4.749-27.571,8.544-37.082,11.408c-9.502,2.84-11.408,8.556-13.311,11.408c-1.898,2.863-12.359,6.658-18.064,0
	c-5.707-6.659-30.423,0.954-21.867,0c8.556-0.931,1.897,23.771,1.897,23.771c-6.65-5.716-19.015,2.852-19.015,2.852
	c16.169,4.761,16.169,30.429,16.169,30.429c-18.066-2.863-61.804,10.454-61.804,10.454c-38.979,10.465-241.498,42.78-299.498,15.203
	c-57.995-27.566-152.117,7.613-152.117,7.613c-28.526-5.704-100.786,14.248-109.351,19.021c-8.554,4.738-47.53,0.943-55.137-0.954
	c-7.613-1.898-17.115-25.679-19.97-27.577c-2.855-1.898-9.507,3.807-9.507,13.306c0,9.51-17.112,11.419-16.163,15.226
	c0.952,3.795,4.752,5.704,10.462,10.454c5.701,4.761-1.909,6.647-8.559,9.51c-6.653,2.84,0,7.601-3.807,17.112
	c-3.801,9.51,1.904,19.964,1.904,19.964s15.214,2.852,40.885,1.898c25.668-0.943,29.472,10.465,78.913-29.464
	c49.439-39.928,87.473-24.736,87.473-24.736c-45.644,20.93-20.915,138.828-20.915,138.828s-19.976,6.659-40.886-2.852
	c-20.915-9.51-39.937-8.568-38.034,5.704c1.907,14.26-39.934,51.348-48.49,63.71c-8.554,12.351-57.043,41.826-59.895,43.723
	c-2.852,1.897-8.559,2.852-21.87,0.966c-13.312-1.909-10.462-4.761-12.36-11.431c-1.9-6.647-11.408-0.943-19.018-1.886
	c-7.602-0.954-13.309-11.419-13.309-11.419C53.801,681.786,50,708.42,50,708.42s16.166,2.863,28.523,3.807
	c12.363,0.943,34.23,12.363,43.737,18.055c9.508,5.704,24.72-9.499,38.031-18.998c13.314-9.522,35.179-33.293,44.687-38.042
	c9.507-4.761,38.031-7.601,38.031-7.601c6.658,1.898,0.954,55.143,0.954,55.143s0.054,0.035,0.144,0.104
	c-0.055-0.046-0.092-0.069-0.144-0.104c-2.855-1.909,0,0-6.659,6.659c-6.656,6.647-12.36,13.305-17.109,11.396
	c-4.755-1.897-6.655,4.773-13.32,7.613c-6.652,2.852-15.206,0-15.206,0c-5.707,4.761-3.81,31.384-3.81,31.384
	s19.97-3.818,29.478-12.362c9.507-8.568,29.475-11.408,37.082-15.215c7.607-3.818,6.653-7.613,5.704-18.067
	c-0.949-10.454,4.755-38.985,1.903-51.348c-2.852-12.362-3.801-20.907,10.454-26.611c14.26-5.727,94.137-5.727,94.137-5.727
	c36.125,0,52.291-24.702,52.291-24.702c29.472-4.761,29.472-27.577,29.472-27.577c15.211-5.704,35.181-32.315,35.181-32.315
	c7.599,20.907,170.189,52.28,192.06,59.892c21.867,7.601,20.915,18.067,20.915,18.067c-8.556,5.704-19.018,28.52-29.471,43.734
	c-10.459,15.203-37.076,41.837-37.076,41.837c-13.317,3.795-18.067,21.862-27.577,25.668c-9.507,3.795-31.378,17.112-40.883,20.907
	c-9.51,3.818-13.314,2.864-21.87,0c-8.559-2.84-12.362-1.886-19.015,5.716c-6.65,7.602-12.36,13.306-19.015,7.602
	c-6.659-5.704-19.015-6.659-19.015-6.659c-11.411,5.704-19.018,43.734-19.018,43.734l28.523-9.51c0,0,29.477-4.749,40.885-3.795
	c0,0,18.064-2.852,32.327-9.511c14.263-6.647,37.082-18.066,52.296-23.759c15.209-5.704,28.523-19.976,41.828-35.19
	c13.311-15.203,23.773-29.474,38.982-37.087c15.215-7.601,35.184-44.678,43.743-46.587c8.55-1.898,16.163-9.499,36.127-16.158
	c19.965-6.647,21.865,8.556,27.569,15.215c5.707,6.67,19.015,66.562,19.97,81.777c0.949,15.192,11.411,38.973,15.212,48.484
	c3.801,9.51,12.359,19.964,18.063,40.882c5.707,20.919,5.704,13.306,3.804,32.327c-1.9,19.021,30.426,22.816,30.426,22.816
	c11.408-5.704,11.408,2.852,11.408,2.852l1.901,12.362c16.166,5.693,33.281,0.943,33.281,0.943
	c1.898-19.953-17.118-28.52-24.722-33.27c-7.61-4.761-17.118-2.852-25.668-10.454c-8.562-7.624-15.215-17.112-16.172-34.224
	c-0.943-17.124-10.454-42.792-16.157-62.767c-5.701-19.953-4.755-99.821-4.755-99.821c9.507-12.362,2.849-37.087,2.849-37.087
	c20.918-10.465,35.182-68.459,42.786-86.526c7.607-18.067,77.962-81.765,92.224-94.117c14.266-12.351,31.381-6.67,31.381-6.67
	c5.707,13.329,30.429,23.782,30.429,23.782c10.454,5.704,39.928,41.837,39.928,41.837c0,20.919,28.523,12.351,28.523,12.351
	c18.064,9.51,23.771-12.351,23.771-12.351C1151.006,499.245,1151.96,484.985,1146.254,478.327z M244.615,721.219
	c0.075,0.047,0.147,0.104,0.224,0.138C244.771,721.323,244.693,721.266,244.615,721.219z M245.015,721.484
	c0.011,0.011,0.017,0.011,0.017,0.011S245.026,721.495,245.015,721.484z"/>
</svg>
