<?xml version="1.0" encoding="utf-8"?>
<!-- Designed by Vexels.com - 2017 All Rights Reserved - https://vexels.com/terms-and-conditions/  -->

<svg version="1.1" id="Layer_1" xmlns="http://www.w3.org/2000/svg" xmlns:xlink="http://www.w3.org/1999/xlink" x="0px" y="0px"
	 width="1200px" height="1200px" viewBox="0 0 1200 1200" enable-background="new 0 0 1200 1200" xml:space="preserve">
<g>
	<path fill="#3D2017" d="M840.563,343.608c-1.319,0-0.269,0.423,1.933,0.986C841.92,343.979,841.242,343.608,840.563,343.608z"/>
	<path fill="#3D2017" d="M1121.015,406.051c-4.237-17.985-38.095-63.492-38.095-63.492c-1.076-16.936-27.522-32.822-31.746-44.458
		c-4.25-11.635-21.172-32.796-28.584-38.095c-7.412-5.286-5.286,4.237-8.461,6.349c-3.187,2.138-13.761,0-13.761,0
		c-5.3,3.175-5.3,30.696-8.474,31.746c-3.175,1.063-12.698,8.474-19.047,9.524c-6.349,1.075-13.748-10.574-27.522-11.636
		c-13.761-1.05-37.033,4.237-33.858,5.286c3.175,1.062,0,15.886-6.349,19.06c-6.349,3.162-29.634-1.062-38.095-2.125
		c-8.487-1.049-8.487,8.474-6.349,11.636c2.112,3.187,4.225,18.01,0,18.01c-2.919,0-13.338-2.009-18.177-3.264
		c2.905,3.2,2.599,13.287-17.806,15.962c-24.347,3.175-42.332,8.462-130.184,27.509c-87.839,19.048-222.247,12.698-222.247,12.698
		c-109.012-34.92-164.029,1.062-186.265,12.698c-22.222,11.636-74.091,16.936-82.552,21.173c-8.461,4.224-52.905,15.86-70.903,20.11
		c-17.985,4.225-35.983-2.125-48.682-11.648c-12.698-9.524-24.334-24.347-28.571-21.185c-4.237,3.187,3.174,11.662,7.399,24.36
		C66.936,458.969,50,453.682,50,463.206c0,9.524,3.162,7.411,4.224,22.209C55.287,500.238,50,522.474,50,522.474
		s19.035,8.449,28.571,0c9.524-8.474,17.985,7.412,29.621,4.225c11.649-3.175,20.11-6.35,35.983-11.636
		c15.873-5.3,21.172-13.761,51.868-47.632c30.684-33.858,75.141-20.097,75.141-20.097c-39.158,31.746,5.286,118.522,11.636,128.046
		c6.349,9.524,1.062,16.922,1.062,16.922c-20.11,9.537-80.44-8.448-80.44-8.448c-33.87-5.3-12.698,53.955-12.698,53.955
		s0,0-1.062,10.599c-1.049,10.573,5.3,78.315,6.362,86.776c1.05,8.474,0,13.761-3.175,19.048
		c-3.187,5.299-7.411,5.299-12.711,11.648c-5.286,6.349-6.336,11.636-6.336,11.636c-9.537,1.062-19.06-5.287-19.06-5.287
		l-13.761,30.696c4.25,11.636,35.996-3.187,35.996-3.187s42.319-27.509,45.506-37.045c3.175-9.499-7.411-104.749-7.411-113.223
		c0-8.474,23.284-2.125,23.284-2.125c-4.224,10.599,14.811,21.172,20.097,24.347c5.3,3.175,34.933,37.033,46.582,49.731
		c11.636,12.711,24.334,22.235,31.746,35.996c7.399,13.748,1.062,23.272,1.062,23.272c-10.586-1.05-8.474,12.711-8.474,12.711
		l-3.175,35.983c9.524-3.187,25.397-31.759,25.397-31.759s5.287-9.524,10.587-34.933c5.286-25.384-4.237-17.985-13.761-29.634
		c-9.524-11.636-21.16-26.459-33.871-35.97c-12.685-9.537-23.272-31.746-23.272-31.746c-1.062-19.048,46.569-19.048,46.569-19.048
		c6.349,6.336,30.683,1.05,30.683,1.05l26.459-9.537c30.696-11.636,27.522-41.257,27.522-41.257
		c16.922-3.175,41.269-34.921,41.269-34.921c23.285,30.658,176.74,69.854,192.601,79.365c15.886,9.524,8.487,32.821,5.299,46.569
		c-3.162,13.773-14.81,28.584-25.397,41.282c-10.586,12.698-19.047,41.282-24.334,45.507c-5.3,4.236-34.933-13.761-47.645-22.223
		c-12.673-8.461-35.957-13.761-44.432-20.097c-8.461-6.362-11.636-25.409-11.636-25.409c-20.11-4.237-37.058,12.685-37.058,12.685
		s19.06,15.886,27.522,17.998c8.461,2.125,0,10.587,21.172,15.886c21.16,5.287,50.793,32.796,67.729,33.871
		c16.922,1.05,19.048,15.86,19.048,15.86c0,14.824-30.684,49.744-30.684,49.744c-16.935,15.873,4.225,32.808,4.225,32.808
		c14.823,8.474,16.935,20.11,16.935,20.11c-6.349,6.362,0,16.948,0,16.948v15.861l45.507,3.174
		c0-11.648-14.823-42.332-28.572-47.619c-13.761-5.3-12.698-27.535-12.698-33.883c0-6.336,13.761-32.783,22.222-48.669
		c8.462-15.873,16.936-6.362,16.936-6.362s25.397-7.399,30.696-14.811c5.287-7.411,6.336-25.409,13.761-42.332
		c7.399-16.923,1.05-31.746,27.509-63.505c26.459-31.746,39.145-26.447,39.145-26.447c43.407-9.536,76.216-44.444,81.502-59.28
		c5.3-14.81,15.873-33.87,15.873-33.87c12.698-9.524,61.393-65.592,76.19-81.477c14.823-15.886,13.773-11.648,34.933-43.395
		c21.16-31.746,50.793-25.397,50.793-25.397c0,10.574,33.87,21.173,33.87,21.173c26.459,8.461,47.619,31.733,47.619,31.733
		c-4.225,19.06,28.584,7.424,28.584,7.424c7.399,6.336,26.446-12.711,26.446-12.711
		C1160.173,445.208,1121.015,406.051,1121.015,406.051z"/>
</g>
</svg>
