<?xml version="1.0" encoding="utf-8"?>
<!-- Designed by Vexels.com - 2017 All Rights Reserved - https://vexels.com/terms-and-conditions/  -->

<svg version="1.1" id="Layer_1" xmlns="http://www.w3.org/2000/svg" xmlns:xlink="http://www.w3.org/1999/xlink" x="0px" y="0px"
	 width="1200px" height="1200px" viewBox="0 0 1200 1200" enable-background="new 0 0 1200 1200" xml:space="preserve">
<g>
	<path fill="#3D2017" d="M606.661,810l-0.783-1.322c-0.026,0.013-0.051,0.013-0.077,0.038C606.276,809.436,606.661,810,606.661,810z
		"/>
	<path fill="#3D2017" d="M1136.413,438.433c-18.054-12.725-41.411-60.492-41.411-60.492c-4.25-29.739-41.411-50.977-45.648-62.649
		c-4.25-11.672-8.488-25.489-15.922-31.857c-7.422-6.369-16.975-27.581-19.107-23.344c-2.132,4.25-7.434,21.225-7.434,21.225
		l-12.738-6.356c0,0-4.25,16.976-4.25,21.239c0,4.225-7.422,6.343-19.106,14.844c-11.672,8.501-24.41,3.172-36.095,2.119
		c-11.672-1.053-20.172,4.237-31.844,14.882c-11.672,10.593-37.161,24.397-37.161,24.397c-25.476,2.131-27.607,6.369-27.607,6.369
		c18.054-2.106-11.672,25.501-11.672,25.501c-42.464,1.04-79.624,4.225-128.444,20.147c-48.846,15.935-252.677,4.25-252.677,4.25
		c-98.718-36.095-164.539,37.148-170.908,41.398c-6.369,4.25-15.923,4.25-15.923,4.25c-38.214,7.435-78.571,21.239-83.875,26.542
		c-5.303,5.303-14.856,0-42.464,5.303c-27.594,5.303-26.541-1.066-42.463-7.422c-15.922-6.369-14.857-16.988-25.476-16.988
		c-10.62,0-4.25,20.173-7.435,25.476c-3.185,5.303-10.619,5.303-4.25,21.225c6.356,15.922,6.369,14.869,6.369,40.345
		c0,25.489,0,25.489,20.16,22.304c20.185-3.185,21.251-3.185,25.501-12.738c4.225-9.566,28.66-2.131,41.398-10.619
		c12.738-8.488,15.922-2.131,48.833-33.976c32.911-31.844,81.743-37.16,81.743-37.16c-35.042,35.029,40.345,141.208,40.345,141.208
		c-8.488,10.606-80.69,23.344-80.69,23.344c-37.148,8.5,9.553,49.898,26.541,66.886c16.988,16.988,33.976,47.78,41.411,58.386
		c7.422,10.606,13.791,9.553,8.488,15.935c-5.303,6.356,2.119,13.79-2.118,26.528c-4.25,12.738-22.292,7.435-22.292,7.435
		l7.435,39.279l25.463-21.239c8.488-3.184,13.804-30.779,13.804-30.779c12.751-6.382-1.053-28.66-1.053-28.66
		c-9.553-10.632-40.358-72.202-50.965-82.809c-10.619-10.619,1.066-8.501,16.988-14.869c15.922-6.369,8.501,9.566,8.501,9.566
		c-14.882,11.672-6.382,26.541-6.382,26.541s9.553,13.79,50.951,24.397c41.424,10.632,67.952,40.345,71.137,48.846
		s7.435,15.922,12.738,16.988c5.316,1.053,5.316,18.041,5.316,18.041l-11.685,16.988c3.185,9.553,30.792,10.62,30.792,10.62
		c6.369-15.936-7.434-53.084-7.434-53.084c1.066-15.922,3.171-26.554-14.869-36.095c-18.041-9.553-61.571-41.398-76.427-54.136
		c-14.857-12.738,27.594-39.292,27.594-39.292c9.566-1.053,48.833-24.41,48.833-24.41c32.923-16.988,18.041-54.149,18.041-54.149
		c13.804,21.213,212.332,71.137,212.332,71.137c29.726,1.066,10.619,23.369,10.619,23.369c-12.75,6.344-52.017,63.677-61.57,70.045
		c-4.867,3.249-10.838,8.976-15.524,13.817c-3.66-3.801-6.639-7.011-7.833-8.513c-4.237-5.304-4.237-19.094-4.237-19.094
		l-33.976,16.988c3.172,10.606,29.726,20.16,29.726,20.16l3.647,6.15c-4.764,6.844-12.378,17.014-19.569,23.576
		c-11.685,10.619-49.911,35.029-60.518,39.292c-10.62,4.238-10.62,18.041-14.869,27.595c-4.238,9.553-4.238,15.923-12.738,16.988
		c-8.488,1.053-18.054,8.488-18.054,8.488l7.447,41.411c0,0-5.316,2.119,3.185,0c8.488-2.131,27.594-35.042,28.66-42.476
		c1.066-7.422,7.422-7.422,12.725-13.804c5.316-6.382,54.162-54.136,69.018-62.611c5.778-3.325,13.316-7.743,20.365-11.916
		c-0.411-0.629-0.886-1.335-1.258-1.9c0.154,0.231,0.359,0.423,0.616,0.642l0.719,1.22c0.231-0.154,0.462-0.27,0.68-0.411
		C610.577,810,618.346,810,618.346,810c2.118,9.541,12.738,13.804,24.41,11.672c11.685-2.131,36.108,1.066,36.108,1.066
		l46.701-4.237c0,0,0,0,11.672-10.632c11.685-10.606,13.804-10.606,8.5-24.41c-5.316-13.804-2.118-107.231-2.118-107.231
		c80.677-5.304,104.034-92.362,104.034-92.362c16.988-11.66,82.809-109.338,107.219-138.011
		c24.423-28.647,40.332-22.279,40.332-22.279c9.566,14.857,43.53,20.173,43.53,20.173c15.923,0,48.846,33.976,48.846,33.976
		c-4.25,32.911,35.03,10.594,35.03,10.594c21.238,8.513,24.422-21.213,24.422-21.213
		C1157.638,461.79,1136.413,438.433,1136.413,438.433z M604.016,806.046c0.026,0.012,0.077,0.09,0.116,0.154
		C604.08,806.123,604.042,806.084,604.016,806.046z M708.577,793.013c-12.725,6.369-64.28-0.488-78.906-2.607
		c1.862-3.801,4.02-8.385,4.597-10.119c1.053-3.21,11.672-11.685,22.291-20.185c10.606-8.487,33.976-30.792,33.976-30.792
		c16.976-2.119,24.41,39.292,28.66,47.767C723.434,785.578,723.434,785.591,708.577,793.013z"/>
</g>
</svg>
