<?xml version="1.0" encoding="utf-8"?>
<!-- Designed by Vexels.com - 2017 All Rights Reserved - https://vexels.com/terms-and-conditions/  -->

<svg version="1.1" id="Layer_1" xmlns="http://www.w3.org/2000/svg" xmlns:xlink="http://www.w3.org/1999/xlink" x="0px" y="0px"
	 width="1200px" height="1200px" viewBox="0 0 1200 1200" enable-background="new 0 0 1200 1200" xml:space="preserve">
<path fill="#3D2017" d="M1143.33,494.542c-39.176-126.162-49.695-123.295-53.521-138.6c-3.826-15.282-17.201-35.35-30.575-39.176
	c-13.386-3.826-6.705,21.027-6.705,21.027c-8.589-2.867-16.23,6.693-21.964,6.693c-5.745,0,0-9.56-13.386-23.894
	c-13.386-14.345-27.72-2.866-21.986,1.919c5.733,4.763-3.815,9.548-15.293,7.641c-11.467-1.908-0.948-10.52-7.641-12.427
	c-6.681-1.919-23.893-1.919-45.868,0c-21.987,1.907-13.387,8.6-18.16,12.427c-4.786,3.814,3.826,11.467-15.293,1.907
	c-19.119-9.548-34.401,1.908-34.401,1.908s-7.652,2.878,3.815,0c11.467-2.867,19.119,22.945,19.119,22.945
	c-21.027-1.919-28.679,5.722-28.679,5.722c45.88,2.867,13.386,20.079,13.386,20.079c-31.534-3.814-72.628-5.733-138.588,13.386
	c-65.936,19.108-211.205,23.882-211.205,23.882c-84.108-33.453-135.71-6.693-148.136-4.774c-12.415,1.896-23.894,2.866-44.909-1.919
	c-21.027-4.774-49.707,3.815-64.04,8.601c-14.334,4.774-43.95,0.959-62.121,1.919c-18.16,0.959-23.882-8.6-31.534-15.293
	c-7.641-6.693-10.508,12.427-21.027,23.894c-10.508,11.467-8.6,16.241-7.641,24.842c0.959,8.612,0.959,9.56-1.919,20.067
	c-2.867,10.519,6.693,12.427,15.282,14.345c8.612,1.896,16.265-1.919,30.598-7.652c14.334-5.734,24.854,4.774,31.535,0
	c6.693-4.774,22.946-6.693,36.32-16.242c13.374-9.548,7.653-5.733,36.32-12.427c28.679-6.704,20.067,2.878,42.042-12.415
	c21.987-15.305,21.987,1.907,21.987,1.907c-23.894,7.63-40.146,74.537-39.187,86.015c0.959,11.444-2.867,49.707-9.56,56.376
	c-6.693,6.693-36.308,0.959-47.787,0.959c-11.467,0-17.189,2.878-22.934,10.508c-5.733,7.641-15.293,30.598-28.668,51.614
	c-13.387,21.016-22.934,44.909-42.054,54.469c-19.12,9.548-23.894,13.386-30.575,6.693c-6.693-6.693-13.386,1.919-18.16,3.838
	c-4.774,1.896-8.612-0.982-17.212-6.693c-8.589-5.734-8.589-25.813-8.589-25.813s14.323-3.815-3.826,0
	C62.427,686.616,50,705.735,50,705.735s15.293,11.467,22.934,13.386c7.653,1.896,24.853,20.067,34.401,30.575
	c9.56,10.508,30.587-4.774,40.146-9.56c9.56-4.774,22.945-18.16,40.135-29.627c17.201-11.467,22.946-21.015,22.946-21.015
	l0.948,19.12c18.16-1.919,21.986-21.998,27.719-24.853c5.734-2.867,14.334-9.56,21.027-9.56c6.693,0,24.853-7.652,34.401-15.293
	c9.572-7.641,49.706-23.905,49.706-23.905c11.467,2.878,48.735-6.693,48.735-6.693c30.587,4.786,46.828-35.338,46.828-35.338
	c3.826-14.334,50.654-23.905,50.654-23.905c43.002,31.523,206.443,43.984,206.443,43.984c12.427,0,6.681,26.749,6.681,26.749
	c-3.815,13.375-24.842,29.639-41.095,46.84c-16.253,17.2-27.708,43.961-39.175,65.936c-11.479,21.975-26.761,36.309-38.228,45.869
	c-11.467,9.56-15.293,21.987-15.293,30.587c0,8.6-3.826,22.945-3.826,22.945l-14.334,5.734
	c-6.693,20.056,33.454,28.668,33.454,28.668s9.548-23.894,8.6-26.749c-0.959-2.878-3.826-17.212-1.919-23.917
	c1.908-6.681,8.612-15.282,11.478-24.83c2.867-9.571,35.349-50.677,47.788-65c12.427-14.346,35.361-27.709,37.256-42.043
	c1.919-14.345,11.478-9.56,19.119-19.119c7.653-9.548,51.602-45.869,51.602-45.869s-8.589-3.838,3.838-2.867
	c12.415,0.948,60.191-11.479,60.191-11.479c-0.936,5.745,22.945,23.905,29.639,25.801c6.693,1.919,21.015,12.438,31.534,25.801
	c10.519,13.386,43.013,48.758,53.521,63.081c10.508,14.345,18.16,19.12,24.853,22.934c6.681,3.838,34.413,44.92,37.268,54.492
	c2.855,9.548,16.253,22.911,26.76,26.749c10.508,3.826,11.467,11.467,11.467,11.467c-6.681,11.478,0,20.067,0,20.067l45.88,9.56
	c0.948-14.322-24.853-34.401-36.32-43.95c-11.467-9.56-20.067-19.119-40.135-39.198c-20.067-20.067-21.986-37.268-31.546-54.469
	c-9.548-17.201-17.189-16.242-25.801-30.576c-8.601-14.345-17.201-30.586-27.72-49.706c-10.508-19.12-29.627-68.814-29.627-68.814
	c25.813-8.589,11.467-70.722,11.467-70.722c25.812-10.496,74.548-64.028,99.401-82.189c24.842-18.16,29.616-1.907,29.616-1.907
	c1.907,11.467,23.894,20.067,23.894,20.067c11.467,2.867,38.227,39.187,38.227,39.187c-4.774,29.627,26.761,22.934,26.761,22.934
	c17.201,8.611,21.987-11.467,21.987-11.467C1157.676,504.09,1143.33,494.542,1143.33,494.542z"/>
</svg>
