<?xml version="1.0" encoding="utf-8"?>
<!-- Designed by Vexels.com - 2017 All Rights Reserved - https://vexels.com/terms-and-conditions/  -->

<svg version="1.1" id="Layer_1" xmlns="http://www.w3.org/2000/svg" xmlns:xlink="http://www.w3.org/1999/xlink" x="0px" y="0px"
	 width="1200px" height="1200px" viewBox="0 0 1200 1200" enable-background="new 0 0 1200 1200" xml:space="preserve">
<path fill="#3D2017" d="M1120.24,537.752c20.345,10.162,22.201-9.245,22.201-9.245c17.539-12.029-0.939-29.591-0.939-29.591
	c-2.772-24.951-43.43-128.455-43.43-128.455c1.845-20.335-17.562-16.634-19.406-33.268c-1.845-16.634-17.562-13.862-17.562-13.862
	l-6.472,12.006c0,0-1.845,14.789-11.078,14.789c-9.256,0-4.628-11.089-7.401-24.023c-2.772-12.945-14.789,4.617-51.758-0.928
	c-36.968-5.545-84.098,11.089-84.098,11.089s21.24,6.472-3.711,0c-24.951-6.473-32.34,9.245-32.34,9.245
	c10.162-3.7,14.398,14.79,14.398,14.79c-2.236,7.378-16.254,12.934-16.254,12.934c15.706,7.389,23.107,12.017-21.251,11.089
	c-44.358-0.928-76.709,9.245-133.084,29.579c-56.375,20.323-109.988,33.268-177.452,17.562
	c-67.475-15.729-117.377-12.017-136.795-8.328c-19.406,3.711-26.795,7.389-43.43,4.617c-16.645-2.772-57.302-7.389-71.175-3.689
	c-13.862,3.7-57.292,5.545-70.225,1.845c-12.946-3.689-26.818-12.006-35.124-14.79c-8.317-2.761-13.873,21.262-13.873,21.262
	s-7.389,13.862-5.544,23.096c1.856,9.256,4.628,9.256,3.7,31.435c-0.928,22.167,20.334,13.862,20.334,13.862
	c4.628-12.934,29.579-13.862,44.358-18.479c14.79-4.628,30.507-5.544,40.669-12.945c10.172-7.389,26.806-16.645,26.806-16.645
	c57.303-25.857,74.854,0,74.854,0c-33.268,14.801-38.813,57.325-40.657,73.948c-1.856,16.645-11.089,60.086-15.707,72.104
	c-4.628,11.995-38.824,21.24-55.458,15.706c-16.634-5.544-26.807,9.234-32.352,15.717c-5.544,6.473-8.317,7.378-31.423,25.868
	c-23.107,18.489-43.43,29.568-47.141,27.723c-3.689-1.845-20.323,6.473-28.643,11.101c-8.323,4.617-4.623,7.389-21.262-2.772
	c-16.629-10.173-15.706-9.256-15.706-9.256L50,713.359c6.472,4.617,25.884,2.762,33.274,0c7.4-2.794,24.034,0,36.037,4.617
	c12.029,4.606,25.879-6.473,30.507-11.089c4.617-4.628,54.531-34.207,64.703-39.763c10.162-5.534,11.089-6.461,28.652-10.15
	c17.551-3.7,10.162,11.089,10.162,11.089s-17.562,12.934-27.724,24.034c-10.172,11.078-19.418,27.712-33.279,43.418
	c-13.862,15.729-18.479,26.818-28.651,28.662c-10.162,1.845-27.723,22.179-27.723,22.179c-2.784,9.234-19.418,12.018-19.418,12.018
	l-18.47-4.617c-16.64,4.617-1.85,37.896-1.85,37.896s33.265-20.334,42.51-22.19c9.245-1.845,22.179-5.545,27.724-11.089
	c5.544-5.545,20.334-27.735,35.124-41.596c14.79-13.85,30.496-33.257,41.596-37.896c11.078-4.606,22.167-24.012,29.556-26.784
	c7.401-2.783,26.818-14.801,35.135-22.19c8.317-7.389,11.089-8.317,31.423-26.27c20.323-17.942,44.358-12.532,44.358-12.532
	c20.335-0.928,37.885-12.945,43.441-28.662c5.544-15.706,36.041-24.034,36.041-24.034s27.735-17.562,78.564,8.328
	c50.841,25.868,157.129,37.885,181.153,39.729c24.023,1.845,12.017,22.19,5.545,33.268c-6.473,11.089-9.245,43.441-17.551,55.458
	c-8.328,12.018-4.628,33.28-5.556,40.669c-0.928,7.401-12.934,44.369-20.335,61.003c-7.389,16.623-0.928,29.568,14.79,30.485
	c15.706,0.939,13.873,14.79,13.873,14.79s2.762-3.689,0,3.7c-2.772,7.4,1.833,12.933,1.833,12.933h34.197
	c-1.845-8.305-4.606-11.089-12.934-20.323c-8.317-9.245-17.562-18.489-27.724-28.651c-10.162-10.173-0.928-29.568,8.317-50.841
	c9.245-21.24,12.017-35.113,17.562-47.13c5.545-12.017,2.772-25.879,18.478-47.141c15.717-21.251,22.19-46.202,30.496-48.986
	c8.328-2.772,22.19-5.523,35.124-12.006c12.945-6.472,30.507,0,35.124,6.484c4.617,6.461,21.262,15.695,34.196,18.478
	c12.934,2.773,48.058,38.802,66.536,53.603c18.49,14.79,27.735,23.095,35.135,24.023c7.389,0.928,20.323,17.562,37.885,29.579
	c17.551,12.006,23.106,29.579,36.968,35.113c13.862,5.544,21.262,2.783,30.507,1.856s16.634,21.251,16.634,21.251
	c13.862-0.905,30.496-19.395,30.496-19.395c-0.917-8.328-36.968-15.728-36.968-15.728s-10.162-2.761-30.496-10.162
	c-20.345-7.389-24.963-29.568-66.548-59.147c-41.596-29.568-100.744-120.15-100.744-120.15c4.617-16.634,1.845-41.585,5.534-56.375
	c3.7-14.801,56.386-57.302,77.648-71.164c21.251-13.862,45.285-11.1,45.285-11.1c-0.928,9.256,18.468,24.045,18.468,24.045
	c25.89,12.934,38.824,49.902,38.824,49.902C1088.827,545.141,1120.24,537.752,1120.24,537.752z"/>
</svg>
