<?xml version="1.0" encoding="utf-8"?>
<!-- Designed by Vexels.com - 2017 All Rights Reserved - https://vexels.com/terms-and-conditions/  -->

<svg version="1.1" id="Layer_1" xmlns="http://www.w3.org/2000/svg" xmlns:xlink="http://www.w3.org/1999/xlink" x="0px" y="0px"
	 width="1200px" height="1200px" viewBox="0 0 1200 1200" enable-background="new 0 0 1200 1200" xml:space="preserve">
<g>
	<path fill="#3D2017" d="M257.751,478.107c0,0,3.3-3.294,3.586-5.812C259.637,473.779,258.395,475.679,257.751,478.107z"/>
	<path fill="#3D2017" d="M922.36,597.103c0,0,2.038,1.226,5.439,3.272C927.945,600.082,922.36,597.103,922.36,597.103z"/>
	<path fill="#3D2017" d="M1141.729,496.715c-4.64-20.451-37.183-117.129-40.902-123.628c-3.713-6.498-8.365-34.392-22.306-51.122
		c-13.947-16.729-15.81,17.663-21.381,21.373c-5.577,3.722-15.796-0.933-22.309-12.086c-6.498-11.153-29.74-18.596-45.539-16.729
		c-15.81,1.855-77.155,7.442-98.536,17.662c-21.379,10.22-24.166,16.73-26.955,24.161c-2.786,7.443-12.086,19.518-63.208,22.306
		c-51.13,2.799-92.023,26.038-92.023,26.038c-44.618,19.507-82.726,47.4-185.908,28.816c-103.171-18.596-133.85-2.788-148.719,0
		c-14.875,2.777-39.047-3.732-74.369-6.51c-35.314-2.799-89.227,4.632-107.814,0c-18.593-4.655-38.116-12.086-38.116-12.086
		s-11.153,15.808-13.008,18.596c-1.867,2.777,5.568,21.373,5.568,21.373s1.861,8.365,1.861,25.094
		c0,16.729,24.169,28.815,24.169,28.815s-0.927-9.287,10.231-13.952c11.153-4.644,13.011,1.866,19.512-4.644
		c6.51-6.509,9.295-8.353,39.974-17.64c16.215-4.936,19.698-3.092,19.386-0.258c10.569-9.276,39.839-3.002,67.061-17.415
		c31.599-16.741,26.025,7.431,26.025,7.431c-58.561,29.749-51.127,129.215-58.561,139.435c-7.44,10.219-41.829,39.968-60.42,40.901
		c-18.587,0.922-26.955,12.075-32.532,19.518c-5.579,7.432-13.016,10.22-32.534,26.95c-19.52,16.729-39.039,24.172-46.479,30.682
		c-7.437,6.509-24.169,7.431-30.673,7.431s-18.59-21.384-18.59-21.384c-8.367,6.51-27.885,25.094-24.169,30.682
		c3.722,5.588,25.1,7.432,28.816,8.365c3.722,0.933,12.086-1.855,19.526,2.788c7.431,4.655,33.456,2.799,35.314,0
		c1.866-2.788,43.696-32.526,56.707-41.835c13.011-9.286,18.584-18.584,40.896-18.584c22.309,0-0.927,28.804-1.861,32.537
		c-0.93,3.71-13.941,26.949-19.515,39.957c-5.582,13.019-5.582,35.325-19.52,48.344c-13.944,13.019,0.922,27.883,0.922,27.883
		s5.582,2.788,13.016,18.595c7.44,15.797-4.646,24.161-4.646,24.161s-0.928-3.71,0,2.799c0.927,6.498,39.968,0,39.968,0
		s-12.08-29.76-17.66-37.18c-5.573-7.442-9.292-22.317-7.434-34.415c1.861-12.064,23.24-62.263,29.743-73.416
		c6.501-11.153,29.743-26.961,38.114-31.604c8.362-4.655,29.743-13.008,42.757-25.094c13.016-12.098,60.417-33.47,60.417-33.47
		c30.676-7.432,39.968-35.314,39.968-35.314c7.44-0.012,41.829-16.718,52.058-22.318c10.217-5.565,19.518-19.506,53.907-3.71
		c34.39,15.808,206.359,31.615,213.801,29.749c7.426-1.866,26.947-1.855,36.247,5.576c9.295,7.432,5.571,46.478,4.641,64.13
		c-0.934,17.663,3.719,34.393,0.93,47.412c-2.794,13.008,6.507,26.949,10.237,32.526c3.705,5.588,5.565,12.086,9.287,30.682
		c3.713,18.596,3.713,51.122,9.301,59.498c5.571,8.354,17.66,13.008,26.019,9.287c8.365-3.711-0.93,16.718,2.788,20.451
		c3.721,3.71,37.189-0.933,37.189-0.933s-6.512-16.73-9.301-24.161c-2.788-7.442-24.166-12.086-35.328-23.239
		c-11.147-11.164-14.866-28.815-21.367-46.49c-6.515-17.64,3.719-35.314,0.919-50.188c-2.78-14.863-1.861-26.961-2.78-38.114
		c-0.933-11.142,12.08-53.921,19.52-68.773c7.429-14.885,13-4.655,22.3-0.933c9.295,3.711,25.094-3.721,45.551,4.644
		c20.448,8.375,93.879,36.247,100.391,39.98c6.501,3.71,26.03,23.228,37.178,37.169c11.153,13.941,19.523,30.671,28.819,36.247
		c9.295,5.588,5.576,11.175,15.793,14.874c10.237,3.721,6.507,28.815,6.507,28.815l30.682,0.945c0,0-8.365-25.117-20.454-37.192
		c-12.08-12.086-52.054-55.776-61.347-74.372c-9.295-18.585-22.312-26.949-33.465-34.37c-9.301-6.217-61.198-37.585-78.217-47.861
		c-0.098,0.169-2.097-0.551-8.227-3.272c-16.733-7.443-19.515-17.662-19.515-17.662c18.587-8.376,21.376-63.219,21.376-63.219
		c8.365-59.486,111.539-78.082,111.539-78.082c-3.714,7.442,20.462,25.105,20.462,25.105c9.279,0.933,43.682,51.133,43.682,51.133
		c-1.858,20.44,22.315,13.008,22.315,13.008c10.223,13.008,26.022-8.365,26.022-8.365
		C1157.531,510.667,1141.729,496.715,1141.729,496.715z"/>
</g>
</svg>
