<?xml version="1.0" encoding="utf-8"?>
<!-- Designed by Vexels.com - 2017 All Rights Reserved - https://vexels.com/terms-and-conditions/  -->

<svg version="1.1" id="Layer_1" xmlns="http://www.w3.org/2000/svg" xmlns:xlink="http://www.w3.org/1999/xlink" x="0px" y="0px"
	 width="1200px" height="1200px" viewBox="0 0 1200 1200" enable-background="new 0 0 1200 1200" xml:space="preserve">
<g>
	<path fill="#3D2017" d="M64.358,779.359c0,0,0.426,0.544,1.172,1.424C71.898,775.585,64.358,779.359,64.358,779.359z"/>
	<path fill="#3D2017" d="M1141.107,497.005c-2.871-65.084-37.326-126.336-37.326-140.691c0-14.366-12.439-31.581-31.582-44.987
		c-19.144-13.394-8.619,16.265-8.619,16.265l-17.226,4.793c0,0-5.748,4.793-13.4-10.534c-7.66-15.304-9.571-16.266-27.755-18.175
		c-18.19-1.922-29.671,13.394-51.687,13.394c-22.016,0-55.513,8.602-77.523,24.878c-22.016,16.289-8.616,8.625-35.419,13.417
		c-26.797,4.77-31.584,7.652-31.584,7.652c9.574-4.781,15.319,6.691,15.319,6.691c-23.932,0-111.984,22.019-111.984,22.019
		c-94.761,43.065-183.765,44.014-183.765,44.014c-96.671-25.827-170.368-3.82-179.939-0.949c-9.574,2.871-19.142,1.91-60.294-8.613
		c-41.161-10.535-174.202-2.871-174.202-2.871c-11.484,9.574,4.784,48.819,7.661,64.135c2.868,15.304,28.713,30.62,26.8,19.136
		c-1.913-11.484,14.358-21.07,46.899-32.542c32.536-11.496,22.966,6.703,33.5,1.91c10.526-4.781,11.481,0,60.297-18.187
		c48.813-18.175,41.149,2.871,41.149,2.871c-41.149,19.136-53.591,137.831-57.425,150.264
		c-3.829,12.434-44.981,44.038-58.379,50.729c-13.403,6.703-36.371,29.682-37.329,37.323c-0.961,7.664-32.536,42.104-45.942,54.572
		c-13.397,12.434-40.194,37.311-40.194,37.311s6.694-0.938-3.832,1.922c-8.599,2.338-18.465-8.057-21.799-11.971
		c-0.798,0.648-1.805,1.436-3.085,2.396C50.961,791.792,50,836.779,50,836.779s36.371-10.523,38.284-15.316
		c1.919-4.793,21.061-9.574,21.061-9.574c12.439,3.832,81.355-81.361,81.355-81.361s0,0,5.739-4.77
		c5.742-4.793,32.545-21.07,39.242-33.514c6.7-12.422,60.303-40.183,69.874-46.885c9.568-6.703,22.965-3.821,22.965-3.821
		c2.876,17.214-32.536,46.886-52.639,57.409c-20.097,10.523-16.271,23.94-11.487,41.167c4.784,17.226,22.019,102.407,21.058,118.672
		c-0.955,16.265,16.268,18.187,27.758,15.316c11.487-2.871,10.526,19.147,10.526,19.147c1.913,6.691,41.158,0.95,41.158,0.95
		l-14.358-28.71c-4.781-9.574-33.497-9.574-39.242-16.265c-5.739-6.714-13.403-76.579-20.094-94.755
		c-6.703-18.187,44.023-45.948,44.023-45.948c23.929-5.742,84.226-59.342,84.226-59.342c31.581-19.148,25.845-46.897,25.845-46.897
		c7.653-0.973,20.095-9.562,27.753-22.968c7.655-13.406,36.365,0,36.365,0c50.735,38.295,290.973,32.542,290.973,32.542
		c-3.837,8.625,32.536,26.8,32.536,26.8s15.313,20.097,27.758,39.245c12.442,19.136,21.055,45.948,24.884,63.174
		c3.829,17.226,21.058,20.097,21.058,20.097s12.439,11.484,24.878,35.413c12.445,23.929,18.193,42.105,23.932,48.819
		c5.742,6.691,7.66,12.433,18.187,17.215c10.526,4.793,0.952,24.89,0.952,24.89c2.874,8.613,37.329,2.871,37.329,2.871
		l-8.613-21.058c0,0-10.526-11.484-16.274-18.187c-5.739-6.691-27.747-35.402-37.32-50.718
		c-9.574-15.327-28.719-67.955-44.032-94.766c-15.31-26.788-28.716-73.697-28.716-73.697s66.044,0,78.487,1.91
		c12.439,1.922,30.628,14.366,39.244,24.89c8.61,10.523,23.921,58.393,23.921,58.393c-4.787,12.445,0.955,39.233,0.955,39.233
		c-4.781,1.922-9.568,9.574-9.568,9.574c-3.824,15.316,25.845,32.554,25.845,32.554s4.781-30.644,3.826-41.167
		c-0.952-10.523-3.826-38.272-3.826-38.272s-25.845-61.275-29.668-77.529c-3.831-16.277-4.79-11.495-21.058-21.058
		c-16.277-9.586-52.642-22.98-83.271-30.643c-30.626-7.652-20.097-20.086-20.097-20.086c8.616-2.882,32.539-45.947,36.368-66.994
		c3.826-21.07,26.797-32.554,61.255-61.264c34.455-28.722,52.642-8.613,52.642-8.613c5.739,22.019,24.884,26.8,24.884,26.8
		c12.442,6.703,37.326,50.729,37.326,50.729c-8.616,31.581,26.803,15.316,26.803,15.316c14.355,18.175,25.842-10.535,25.842-10.535
		C1156.426,504.668,1141.107,497.005,1141.107,497.005z"/>
</g>
</svg>
