<?xml version="1.0" encoding="utf-8"?>
<!-- Designed by Vexels.com - 2017 All Rights Reserved - https://vexels.com/terms-and-conditions/  -->

<svg version="1.1" id="Layer_1" xmlns="http://www.w3.org/2000/svg" xmlns:xlink="http://www.w3.org/1999/xlink" x="0px" y="0px"
	 width="1200px" height="1200px" viewBox="0 0 1200 1200" enable-background="new 0 0 1200 1200" xml:space="preserve">
<path fill="#3D2017" d="M1134.49,433.541c-7.354-11.551-30.469-69.337-39.926-80.893c-9.451-11.554-25.208-32.562-52.525-68.291
	c-27.317-35.714-39.922-8.399-43.074-3.145c-3.151,5.254-33.619,2.097-53.579,4.2c-19.963,2.1-34.668,2.1-45.174,12.609
	c-10.509,10.505-22.066,3.152-37.826,4.203c-15.75,1.045-30.466,6.302-19.96,7.354c10.509,1.046,2.103,7.351-8.403,14.709
	c-10.503,7.354-21.008,6.302-27.317,3.148c-6.303-3.148-16.805,7.354-13.66,7.354c3.157,0,8.412,7.351,8.412,7.351
	c-9.457,11.561-77.745,33.62-77.745,33.62c-117.664,28.366-275.249,7.364-275.249,7.364
	c-110.314-21.017-156.536,50.419-175.454,60.928c-18.902,10.505-24.156,1.048-54.625-11.554
	c-30.462-12.609-54.621-3.157-76.691-8.406c-22.066-5.251-45.177-3.154-51.476,0c-6.309,3.148-30.465,14.706-36.768,18.909
	c-6.309,4.203,0,13.654-3.154,24.162c-3.155,10.509,19.959,27.321,16.808,38.874c-3.152,11.557,15.76,30.472,22.063,32.569
	c6.306,2.103,12.602,3.155,12.602-16.808c0-19.963,50.434-33.623,50.434-33.623c-2.1,8.406-2.103,14.709-2.103,14.709
	c11.554-2.097,19.96-11.554,43.074-27.314c23.111-15.756,81.945-4.2,81.945-4.2c-17.866,88.251,115.562,175.447,115.562,175.447
	c21.015,19.957,18.915,72.484,14.712,91.393c-4.206,18.914,9.457,34.678,17.857,40.974c8.406,6.303,18.908,19.96,34.675,42.026
	c15.76,22.054,32.568,36.765,37.816,56.725c5.254,19.959,9.454,30.472,17.86,23.117c8.409-7.361,22.059,12.605,22.059,12.605
	l-1.048,16.815c6.299,8.393,47.28-2.103,47.28-2.103s-5.252-14.711-14.712-22.066c-9.457-7.351-81.945-92.448-91.402-108.204
	c-9.454-15.757-15.763-37.829-17.853-52.529c-2.103-14.708,7.345-17.866,19.953-16.821c12.615,1.064,43.074,16.821,61.988,13.663
	c18.909-3.158,46.222,8.409,56.731,13.66c10.506,5.254,11.554,8.406,24.166,6.3c12.602-2.103,14.705,7.357,14.705,7.357v14.709
	c4.203,10.509,46.225,9.454,46.225,9.454l-17.857-32.565c-7.354-21.011-63.04-43.08-84.054-45.177
	c-21.011-2.1-82.99-14.706-82.99-14.706c0-8.412-10.506-37.823-10.506-37.823c10.506-43.077-1.051-74.594-1.051-74.594
	c-6.299-12.609,16.808,1.055,16.808,1.055c15.757,25.214,218.515,60.934,224.821,73.542c6.302,12.605,42.019,28.362,59.886,40.974
	c17.853,12.609,22.053,18.914,18.908,27.307c-3.151,8.409-14.715,12.618-33.623,18.915c-18.905,6.309-17.857,10.505-26.266,9.457
	c-8.399-1.049-17.856-13.654-25.211-21.008c-7.351-7.364,3.155-16.818,3.155-16.818c-7.357-15.757-43.077-23.105-43.077-23.105
	s7.358,29.411,14.711,38.868c7.354,9.454,27.314,27.314,29.411,37.816c2.106,10.505,6.306,12.618,14.715,9.46
	c8.403-3.152,9.451-2.107,34.665-14.712c25.214-12.605,50.425-13.65,53.58-18.911c3.154-5.245,12.605-19.963,8.405-33.614
	c-4.203-13.657-42.022-56.734-42.022-56.734c8.408-3.148,82.996,7.354,94.554,6.299c11.557-1.048,45.17,10.512,53.579,25.217
	c8.406,14.711,16.805,52.531,15.757,58.831c-1.051,6.306-4.206,26.269,3.148,28.372c7.36,2.1,11.554,14.706,2.103,21.008
	c-9.457,6.297-8.403,26.269-8.403,26.269c0,21.015,33.613,21.005,33.613,21.005s-6.302-51.48-6.302-57.78s4.206-19.963,1.051-35.72
	c-3.151-15.754-21.015-52.534-23.108-68.288c-2.106-15.757-10.509-36.765-26.269-45.177c-15.756-8.399-97.702-34.668-97.702-34.668
	c18.909-10.505,54.625-100.853,54.625-100.853c6.31-3.148,30.475-37.819,52.532-73.539c22.066-35.723,61.988-25.217,61.988-25.217
	c1.055,9.458,34.668,24.166,34.668,24.166c15.76,0,51.477,40.968,51.477,40.968c-9.451,30.468,30.468,10.509,30.468,10.509
	c28.369-1.048,22.059-19.957,22.059-19.957C1161.801,453.51,1134.49,433.541,1134.49,433.541z"/>
</svg>
