<?xml version="1.0" encoding="utf-8"?>
<!-- Designed by Vexels.com - 2017 All Rights Reserved - https://vexels.com/terms-and-conditions/  -->

<svg version="1.1" id="Layer_1" xmlns="http://www.w3.org/2000/svg" xmlns:xlink="http://www.w3.org/1999/xlink" x="0px" y="0px"
	 width="1200px" height="1200px" viewBox="0 0 1200 1200" enable-background="new 0 0 1200 1200" xml:space="preserve">
<g>
	<path fill="#3D2017" d="M535.512,728.913c0,0,3.053,1.52,8.047,4.065C550.461,736.057,535.512,728.913,535.512,728.913z"/>
	<path fill="#3D2017" d="M1136.123,449.118c0,0-30.502-70.473-33.654-89.402c-3.162-18.934-33.664-45.235-45.235-71.529
		c-11.575-26.298-50.49-10.522-57.843-6.314c-7.363,4.211-8.423,12.624-30.509,1.049c-22.093-11.571-38.922-6.307-38.922-6.307
		l8.416,3.152c0,0,0,0,0,3.155c0,3.159-6.314,9.472-21.034,8.416c-14.727-1.046-11.578,3.159-22.096,7.363
		c-10.519,4.208-15.776,1.056-28.39-1.049c-12.627-2.109-10.525,4.208-7.37,10.521c3.162,6.308,8.409,14.291-15.776,6.308
		c-20.109-6.638-40.203-2.249-46.415-0.566c7.388-0.541-7.23,26.864-7.23,26.864c-25.248,2.099-34.717,9.462-100.979,29.446
		c-66.263,19.99-213.523,15.779-213.523,15.779c-136.742-32.605-198.803,54.694-220.893,56.8
		c-22.089,2.105-67.322-25.245-74.681-24.189c-7.36,1.046-57.853-5.264-73.632-7.363c-15.779-2.112-32.605,6.307-46.278,13.668
		c-13.677,7.369-9.469,32.611-9.469,46.288c0,13.671-2.106,16.829,3.155,15.773c5.261-1.049,17.879,1.056,14.727,12.627
		c-3.152,11.568,6.31,16.826,17.885,12.618c11.568-4.208,31.558-10.518,52.588-35.76c21.04-25.245,16.826,8.413,16.826,8.413
		c3.159-12.624,31.558-25.242,31.558-25.242c27.348-22.089,86.256,19.984,86.256,19.984
		c-26.294,56.804,39.975,158.829,53.648,169.351c13.67,10.518,2.099,22.086,2.099,22.086s-18.928,38.922-37.866,63.117
		c-18.931,24.192-2.106,34.71-2.106,34.71c13.68,10.515,48.39,107.283,48.39,107.283c-2.099,9.465,6.314,28.404,6.314,28.404
		c-7.36,12.627,2.099,21.034,2.099,21.034l49.447,1.059l-2.112-9.472c0,0-13.673-28.397-27.35-38.922
		c-13.667-10.519-41.018-91.498-34.71-95.709c6.313-4.208,12.627-36.816,12.627-36.816c23.139-18.944,64.16-90.464,69.417-99.936
		c5.257-9.462,5.257-11.565,14.729-6.304c9.466,5.257,19.984,42.073,21.031,64.163c1.056,22.083,19.987,29.452,19.987,29.452
		c18.935-3.158,125.171,63.104,138.845,71.52c13.68,8.416,25.247,6.317,25.247,6.317c-2.109,5.261,10.516,18.931,10.516,18.931
		c6.32,8.419,46.285,1.047,46.285,1.047c0-6.304-19.994-24.186-19.994-24.186s-8.403-9.469-12.614-11.575
		c-4.208-2.096-14.726,1.049-26.301-11.565c-9.367-10.232-66.368-39.777-87.675-50.632c-1.877-0.837-5.353-2.417-11.202-5.115
		c-27.347-12.627-33.654-44.179-36.816-58.906c-3.146-14.729-16.816-78.889-16.816-78.889c0-11.577,42.061,7.367,42.061,7.367
		c28.403,21.034,173.559,31.555,179.869,42.073c6.311,10.519,10.516,12.624,16.835,10.519c6.311-2.103,39.965,3.155,55.747,3.155
		c15.776,0,55.744,8.41,76.781,14.726c21.034,6.307,15.773,19.987,9.469,27.341c-6.317,7.372-27.35,35.776-45.232,47.341
		c-17.885,11.568-29.453,2.099-34.71-3.159c-5.261-5.257-9.469,3.159-19.984,0c-10.518-3.155-23.145-4.211-23.145-4.211
		l-5.255,37.875c0,0,7.357-2.109,17.882-8.423c10.518-6.307,58.908,4.211,58.908,4.211c7.357,9.469,26.291-7.357,26.291-7.357
		s43.133-55.75,53.648-65.222c10.518-9.465,3.155-21.04,3.155-21.04c3.151-10.512,65.203,22.096,70.48,27.357
		c5.248,5.257,36.8,42.067,38.905,49.437c2.113,7.357,11.581,26.294,20,27.34c8.406,1.056,13.66,15.783,13.66,15.783
		c-5.254,4.201-3.152,17.881-3.152,17.881l37.866,18.937c1.056-22.099-21.034-54.697-27.347-63.116
		c-6.317-8.423-5.264-15.776-10.519-21.037c-5.264-5.258-37.866-37.862-44.179-47.331c-6.313-9.469,5.267-7.367-10.521-25.251
		c-15.776-17.881-74.688-52.583-106.234-61.005c-31.552-8.413-22.086-26.292-22.086-26.292
		c26.294-11.574,29.456-61.011,29.456-61.011c3.152-30.506,58.906-80.992,75.731-104.131c16.822-23.142,46.285-13.677,46.285-13.677
		c3.152,10.521,35.751,25.245,35.751,25.245c18.937-1.053,47.344,50.487,47.344,50.487c-7.369,24.198,37.862,10.521,37.862,10.521
		c12.624-1.049,21.034-17.878,21.034-17.878C1163.473,467.003,1136.123,449.118,1136.123,449.118z"/>
	<path fill="#3D2017" d="M795.32,314.482c0,0,0.703-0.233,1.976-0.566C796.748,313.947,796.106,314.125,795.32,314.482z"/>
</g>
</svg>
