<?xml version="1.0" encoding="utf-8"?>
<!-- Designed by Vexels.com - 2016 All Rights Reserved - https://vexels.com/terms-and-conditions/  -->

<svg version="1.1" id="Layer_1" xmlns="http://www.w3.org/2000/svg" xmlns:xlink="http://www.w3.org/1999/xlink" x="0px" y="0px"
	 width="1200px" height="1200px" viewBox="0 0 1200 1200" enable-background="new 0 0 1200 1200" xml:space="preserve">
<path fill="#4C0022" d="M1119.036,769.858c-20.057-4.732-40.124-16.529-60.191-34.225c-20.053-17.689-40.107-37.755-61.341-58.989
	c-21.247-21.242-60.173-70.804-67.261-83.777c-7.084-12.992-4.727-43.663-8.248-61.359c-3.555-17.705,1.163-17.705,1.163-17.705
	l7.084,3.538l24.785-15.345l3.538-9.436c0,0,9.441-2.361,21.239-9.436c11.797-7.084,18.882-5.899,31.86,2.361
	c12.978,8.269,33.04,17.697,51.913,2.362c18.881-15.344-22.419-31.856-35.398-36.578c-12.979-4.723,7.075-12.983,40.111-9.445
	c33.041,3.538,40.116-22.41,40.116-22.41c14.168-22.428-18.873-23.596-18.873-23.596c-12.983-4.731-41.292-21.242-41.292-21.242
	c-15.345-54.284-92.039-46.023-92.039-46.023c-21.247-18.873-49.561-34.217-71.322-27.142c-21.766,7.083,0,54.275,0,54.275
	l-15.993,2.37l-5.903-7.075l-27.137,17.697l-1.177,9.437c-9.445-8.26-41.301,11.797-64.896,21.233
	c-23.604,9.445-79.059,15.345-107.383,21.243c-28.318,5.899-178.168-1.176-178.168-1.176c-70.8-5.899-138.053,48.375-138.053,48.375
	s0,0-24.78,0c-24.78,0-67.253,27.134-90.857,50.738c-23.6,23.604-54.266,46.014-74.333,55.46
	c-20.062,9.427-35.406,11.789-61.363,9.427c-25.961-2.352-31.856-11.797-31.856-11.797c-37.763,0,18.877,33.04,18.877,33.04
	c89.677,23.595,161.653-58.988,161.653-58.988c29.498-29.504,77.879-36.579,77.879-36.579
	c-43.663,21.234-23.6,122.718-22.419,143.944c1.176,21.242-22.419,49.569-36.583,62.543c-14.15,12.974-35.393,27.142-54.275,40.116
	c-18.882,12.983-5.899,20.066-1.18,34.226c4.727,14.15,3.538,29.485,5.894,54.275c2.366,24.771,2.366,21.233,9.45,25.956
	c7.075,4.715,7.075,5.908,25.961,9.445c18.877,3.538,29.489,7.075,31.851-9.445c2.353-16.52-22.419-7.083-33.04-14.167
	c-10.622-7.075-5.895-17.689-8.256-24.781c-2.366-7.075,1.176-25.948,2.361-35.393c1.163-9.445,50.742-40.116,50.742-40.116
	s41.293-28.327,55.452-36.578c14.159-8.26,42.477-42.469,42.477-42.469s7.08,8.26,18.882,34.208
	c11.798,25.966-7.075,73.165-11.802,88.501c-4.718,15.335,1.18,28.309,12.983,40.124c11.797,11.789,29.498,28.319,41.296,38.931
	c11.797,10.613,10.621,8.26,21.23,10.613c10.638,2.37,18.886,5.907,36.591,9.445c17.689,3.538,23.596,3.538,29.495-12.992
	c5.903-16.512-10.612-11.789-21.239-11.789c-10.621,0-40.116-16.512-50.742-22.419c-10.608-5.899-11.797-17.705-16.516-36.578
	c-4.718-18.882,3.542-34.216,10.618-56.636c7.079-22.419,37.763-89.677,38.948-105.021c1.177-15.327-5.908-62.527-5.908-62.527
	c12.978-1.185,122.713,25.957,140.414,38.931c16.573,12.147,140.698,5.699,156.456,4.819c0.283,0.775,1.081,2.169,2.84,4.617
	c5.904,8.269,37.755,23.605,61.355,28.336c23.6,4.706,47.204,15.327,57.821,28.31c10.612,12.983,16.515,25.957,16.515,47.199
	c0,21.234,0,31.865,20.063,42.478c20.053,10.612,29.494-3.538,34.216-8.26c4.718-4.714-2.365-10.622-11.797-20.066
	c-9.441-9.437-3.538-28.319-3.538-28.319s41.283,16.53,54.27,24.781c12.979,8.26,58.997,30.688,73.147,40.124
	c14.168,9.437,17.706,24.772,43.672,3.538C1165.052,775.757,1139.095,774.581,1119.036,769.858z"/>
</svg>
