<?xml version="1.0" encoding="utf-8"?>
<!-- Designed by Vexels.com - 2016 All Rights Reserved - https://vexels.com/terms-and-conditions/  -->

<svg version="1.1" id="Layer_1" xmlns="http://www.w3.org/2000/svg" xmlns:xlink="http://www.w3.org/1999/xlink" x="0px" y="0px"
	 width="1200px" height="1200px" viewBox="0 0 1200 1200" enable-background="new 0 0 1200 1200" xml:space="preserve">
<path fill="#4C0022" d="M338.552,495.529c0,0-57.255-6.38-100.515,41.969c-43.252,48.348-80.157,76.347-97.966,78.892
	c-17.818,2.547-83.98,20.359-89.067-52.172c0,0-5.083-25.443,7.629-3.815c0,0,16.555,26.72,31.812,33.09
	c15.272,6.352,34.354,3.815,53.441-7.648c19.082-11.443,50.899-48.348,72.523-72.513c21.629-24.184,77.62-58.533,129.778-59.801
	c0,0,61.056-111.964,301.533-68.708c0,0,47.079,2.537,76.336-1.278c29.266-3.815,45.811,8.915,69.982,2.546
	c24.174-6.36,66.161-21.618,69.981-20.35c3.819,1.268,3.819,1.268,3.819,1.268l1.268-10.175l30.534-17.804h8.902
	c0,0-26.72-47.089-7.629-52.181c0,0,27.984,10.185,52.153,11.462c0,0,106.872-22.906,141.23,43.256c0,0,39.451-5.092,48.349,8.907
	c0,0,16.55,26.72,0,35.617c-16.54,8.917-24.169,19.091-55.973,17.823c0,0,31.803,26.71,27.984,43.256
	c-3.814,16.535-16.535,29.257-66.152,22.896c0,0-52.177,2.547-57.255,5.092v6.361l-43.261,12.721l-7.633-6.341
	c0,0-11.458,11.433-12.722,41.969c-1.273,30.534-10.185,72.522-20.359,89.067c0,0-5.087,10.165,10.175,20.359
	c0,0,91.614,52.163,106.872,68.708c15.272,16.535,27.994,30.534,48.358,44.524c20.35,13.99,26.715,24.165,35.617,26.711
	c8.907,2.555,22.906,25.461,1.273,26.72c0,0-27.993,3.815-43.256-13.999c-15.267-17.813-22.915-10.165-36.895-27.988
	c-13.999-17.804-21.633-29.266-47.08-36.896c-25.447-7.638-148.859-45.793-157.756-55.968c0,0,11.443,57.236,1.258,71.245
	c-10.175,13.99-30.544,26.711-39.437,33.072c-8.907,6.37-35.627,17.814-45.802,21.637c-10.176,3.815-39.446,7.639-43.266-5.102
	c-3.805-12.721-16.536-27.988,7.643-33.062c24.174-5.101,31.804-3.823,48.344-7.657c16.545-3.815,26.721-10.165,26.721-17.795
	s-25.452-36.904-30.535-52.163c-5.092-15.276-1.273-26.739-1.273-26.739s-54.704-16.535-73.795-27.979
	c-19.092-11.443-103.057-49.626-91.604-25.442c0,0,31.808,108.149,45.798,125.954c14.003,17.814,21.632,47.071,45.807,63.625
	c0,0,57.26,19.072,71.254,20.35c13.99,1.269,11.453,31.813-19.087,30.535c0,0-29.271,1.278-50.895-11.454
	c-21.623-12.721-47.079-33.071-62.343-44.524c-15.262-11.462-25.447-13.999-33.08-26.711c-7.634-12.73-5.092-20.36-20.351-38.182
	c-15.277-17.823-31.817-52.163-43.265-52.163c0,0-27.984,89.058-36.896,110.686c-8.902,21.637-19.087,40.719-5.097,55.977
	c14.009,15.268,31.817,29.276,40.719,35.628c8.907,6.37,45.798,10.185,44.539,24.174c-1.282,13.99,3.815,21.637-17.818,16.555
	c-21.632-5.112-43.266-6.37-49.616-14.009c-6.37-7.629-25.448-25.442-40.72-38.164c-15.262-12.712-30.534-19.091-31.807-27.997
	c-1.273-8.907,1.273-21.629,5.087-44.515c3.824-22.915,16.54-81.438,1.273-114.519c-15.267-33.072-41.987-52.163-41.987-58.523
	C384.35,613.845,316.919,569.311,338.552,495.529z"/>
</svg>
